<svg xmlns="http://www.w3.org/2000/svg" xmlns:xlink="http://www.w3.org/1999/xlink" width="500" zoomAndPan="magnify"
    viewBox="0 0 375 262.499992" height="350" preserveAspectRatio="xMidYMid meet" version="1.0">
    <defs>
        <g />
        <clipPath id="044fcce6de">
            <path
                d="M 123.753906 26.199219 L 251.011719 26.199219 L 251.011719 142.976562 L 123.753906 142.976562 Z M 123.753906 26.199219 "
                clip-rule="nonzero" />
        </clipPath>
    </defs>
    <path fill="#ff914d"
        d="M 187.492188 50.691406 C 204.1875 50.691406 217.71875 64.226562 217.71875 80.917969 C 217.71875 97.609375 204.1875 111.144531 187.492188 111.144531 L 157.640625 111.144531 C 161.164062 108.769531 164.359375 106.171875 167.320312 103.421875 L 167.332031 103.433594 C 161.152344 97.902344 157.269531 89.867188 157.269531 80.917969 C 157.269531 64.226562 170.804688 50.691406 187.496094 50.691406 Z M 187.492188 50.691406 "
        fill-opacity="1" fill-rule="evenodd" />
    <g clip-path="url(#044fcce6de)">
        <path fill="#ffffff"
            d="M 139.324219 55.117188 L 138.523438 55.117188 C 130.398438 55.117188 123.753906 61.761719 123.753906 69.878906 L 123.753906 84.195312 C 123.753906 92.339844 130.433594 98.964844 138.523438 98.964844 L 146.671875 98.964844 C 144.230469 93.445312 142.871094 87.335938 142.871094 80.914062 C 142.871094 56.347656 162.765625 36.285156 187.496094 36.285156 C 212.222656 36.285156 232.121094 56.347656 232.121094 80.914062 C 232.121094 87.335938 230.769531 93.441406 228.324219 98.964844 C 222.828125 111.382812 211.832031 120.816406 198.425781 124.191406 C 196.242188 120.425781 192.164062 117.898438 187.496094 117.898438 C 180.523438 117.898438 174.863281 123.550781 174.863281 130.53125 C 174.863281 137.507812 180.523438 143.160156 187.496094 143.160156 C 193.191406 143.160156 198.011719 139.390625 199.585938 134.203125 C 218.109375 130.023438 233.066406 116.433594 239.164062 98.714844 C 246.007812 97.4375 251.234375 91.398438 251.234375 84.195312 L 251.234375 69.878906 C 251.234375 61.761719 244.589844 55.117188 236.46875 55.117188 L 235.664062 55.117188 C 226.453125 37.953125 208.339844 26.285156 187.492188 26.285156 C 166.652344 26.285156 148.535156 37.953125 139.320312 55.117188 Z M 139.324219 55.117188 "
            fill-opacity="1" fill-rule="evenodd" />
    </g>
    <g fill="#ffffff" fill-opacity="1">
        <g transform="translate(94.801406, 193.933763)">
            <g>
                <path
                    d="M 9.359375 -12.515625 L 9.359375 0 L 2.46875 0 L 2.46875 -31.890625 L 16.859375 -31.890625 L 16.859375 -25.9375 L 9.359375 -25.9375 L 9.359375 -18.296875 L 16.359375 -18.296875 L 16.359375 -12.515625 Z M 9.359375 -12.515625 " />
            </g>
        </g>
    </g>
    <g fill="#ffffff" fill-opacity="1">
        <g transform="translate(113.236819, 193.933763)">
            <g>
                <path
                    d="M 15.140625 -32.390625 C 19.210938 -32.390625 21.25 -30.21875 21.25 -25.875 L 21.25 0 L 14.34375 0 L 14.34375 -10.703125 L 9.359375 -10.703125 L 9.359375 0 L 2.46875 0 L 2.46875 -25.875 C 2.46875 -30.21875 4.503906 -32.390625 8.578125 -32.390625 Z M 9.359375 -16.015625 L 14.34375 -16.015625 L 14.34375 -26.71875 C 14.34375 -26.976562 14.25 -27.207031 14.0625 -27.40625 C 13.882812 -27.601562 13.664062 -27.703125 13.40625 -27.703125 L 10.296875 -27.703125 C 10.035156 -27.703125 9.8125 -27.601562 9.625 -27.40625 C 9.445312 -27.207031 9.359375 -26.976562 9.359375 -26.71875 Z M 9.359375 -16.015625 " />
            </g>
        </g>
    </g>
    <g fill="#ffffff" fill-opacity="1">
        <g transform="translate(137.143709, 193.933763)">
            <g>
                <path
                    d="M 13.859375 -31.890625 L 20.75 -31.890625 L 20.75 -6.015625 C 20.75 -1.671875 18.710938 0.5 14.640625 0.5 L 8.53125 0.5 C 4.457031 0.5 2.421875 -1.671875 2.421875 -6.015625 L 2.421875 -31.890625 L 9.3125 -31.890625 L 9.3125 -5.421875 C 9.3125 -5.160156 9.398438 -4.929688 9.578125 -4.734375 C 9.765625 -4.535156 9.988281 -4.4375 10.25 -4.4375 L 12.921875 -4.4375 C 13.179688 -4.4375 13.398438 -4.535156 13.578125 -4.734375 C 13.765625 -4.929688 13.859375 -5.160156 13.859375 -5.421875 Z M 13.859375 -31.890625 " />
            </g>
        </g>
    </g>
    <g fill="#ffffff" fill-opacity="1">
        <g transform="translate(160.163333, 193.933763)">
            <g>
                <path
                    d="M 20.953125 -31.890625 L 15.875 -15.96875 L 21.59375 0 L 14.390625 0 L 11.046875 -11.140625 L 7.6875 0 L 0.4375 0 L 6.15625 -15.96875 L 1.1875 -31.890625 L 7.890625 -31.890625 L 11.046875 -21.59375 L 14.203125 -31.890625 Z M 20.953125 -31.890625 " />
            </g>
        </g>
    </g>
    <g fill="#ffffff" fill-opacity="1">
        <g transform="translate(182.394271, 193.933763)">
            <g />
        </g>
    </g>
    <g fill="#ffffff" fill-opacity="1">
        <g transform="translate(192.351368, 193.933763)">
            <g>
                <path
                    d="M 14.34375 -5.21875 L 14.34375 -10.15625 L 20.90625 -10.15625 L 20.90625 -6.015625 C 20.90625 -1.671875 18.863281 0.5 14.78125 0.5 L 8.578125 0.5 C 4.503906 0.5 2.46875 -1.671875 2.46875 -6.015625 L 2.46875 -25.875 C 2.46875 -30.21875 4.503906 -32.390625 8.578125 -32.390625 L 14.78125 -32.390625 C 18.863281 -32.390625 20.90625 -30.21875 20.90625 -25.875 L 20.90625 -22.875 L 14.34375 -22.875 L 14.34375 -26.71875 C 14.34375 -26.976562 14.25 -27.207031 14.0625 -27.40625 C 13.882812 -27.601562 13.664062 -27.703125 13.40625 -27.703125 L 10.296875 -27.703125 C 10.035156 -27.703125 9.8125 -27.601562 9.625 -27.40625 C 9.445312 -27.207031 9.359375 -26.976562 9.359375 -26.71875 L 9.359375 -5.21875 C 9.359375 -4.957031 9.445312 -4.726562 9.625 -4.53125 C 9.8125 -4.332031 10.035156 -4.234375 10.296875 -4.234375 L 13.40625 -4.234375 C 13.664062 -4.234375 13.882812 -4.332031 14.0625 -4.53125 C 14.25 -4.726562 14.34375 -4.957031 14.34375 -5.21875 Z M 14.34375 -5.21875 " />
            </g>
        </g>
    </g>
    <g fill="#ffffff" fill-opacity="1">
        <g transform="translate(214.92736, 193.933763)">
            <g>
                <path
                    d="M 15.140625 -32.390625 C 19.210938 -32.390625 21.25 -30.21875 21.25 -25.875 L 21.25 0 L 14.34375 0 L 14.34375 -10.703125 L 9.359375 -10.703125 L 9.359375 0 L 2.46875 0 L 2.46875 -25.875 C 2.46875 -30.21875 4.503906 -32.390625 8.578125 -32.390625 Z M 9.359375 -16.015625 L 14.34375 -16.015625 L 14.34375 -26.71875 C 14.34375 -26.976562 14.25 -27.207031 14.0625 -27.40625 C 13.882812 -27.601562 13.664062 -27.703125 13.40625 -27.703125 L 10.296875 -27.703125 C 10.035156 -27.703125 9.8125 -27.601562 9.625 -27.40625 C 9.445312 -27.207031 9.359375 -26.976562 9.359375 -26.71875 Z M 9.359375 -16.015625 " />
            </g>
        </g>
    </g>
    <g fill="#ffffff" fill-opacity="1">
        <g transform="translate(238.834249, 193.933763)">
            <g>
                <path
                    d="M 9.359375 -13.0625 L 9.359375 0 L 2.46875 0 L 2.46875 -31.890625 L 14.734375 -31.890625 C 18.816406 -31.890625 20.859375 -29.722656 20.859375 -25.390625 L 20.859375 -21.6875 C 20.859375 -19.0625 19.921875 -17.382812 18.046875 -16.65625 C 19.679688 -16.070312 20.5 -14.726562 20.5 -12.625 L 20.5 0 L 13.609375 0 L 13.609375 -12.078125 C 13.609375 -12.734375 13.296875 -13.0625 12.671875 -13.0625 Z M 9.359375 -27.21875 L 9.359375 -17.890625 L 13.015625 -17.890625 C 13.273438 -17.890625 13.492188 -17.988281 13.671875 -18.1875 C 13.859375 -18.382812 13.953125 -18.613281 13.953125 -18.875 L 13.953125 -26.21875 C 13.953125 -26.488281 13.859375 -26.722656 13.671875 -26.921875 C 13.492188 -27.117188 13.273438 -27.21875 13.015625 -27.21875 Z M 9.359375 -27.21875 " />
            </g>
        </g>
    </g>
    <g fill="#ffffff" fill-opacity="1">
        <g transform="translate(261.656704, 193.933763)">
            <g>
                <path
                    d="M 9.359375 -5.71875 L 17 -5.71875 L 17 0 L 2.46875 0 L 2.46875 -31.890625 L 17 -31.890625 L 17 -26.28125 L 9.359375 -26.28125 L 9.359375 -18.78125 L 16.515625 -18.78125 L 16.515625 -13.359375 L 9.359375 -13.359375 Z M 9.359375 -5.71875 " />
            </g>
        </g>
    </g>
    <g fill="#ff914d" fill-opacity="1">
        <g transform="translate(94.788603, 229.53655)">
            <g>
                <path
                    d="M 9.875 -11.515625 L 6.671875 -11.515625 L 6.671875 -12.75 C 6.671875 -12.882812 6.625 -13 6.53125 -13.09375 C 6.445312 -13.1875 6.335938 -13.234375 6.203125 -13.234375 L 4.875 -13.234375 C 4.75 -13.234375 4.640625 -13.1875 4.546875 -13.09375 C 4.460938 -13 4.421875 -12.882812 4.421875 -12.75 L 4.421875 -9.984375 C 4.421875 -9.847656 4.460938 -9.734375 4.546875 -9.640625 C 4.640625 -9.546875 4.75 -9.5 4.875 -9.5 L 7.046875 -9.5 C 9.046875 -9.457031 10.046875 -8.394531 10.046875 -6.3125 L 10.046875 -2.953125 C 10.046875 -0.828125 9.046875 0.234375 7.046875 0.234375 L 4.203125 0.234375 C 2.203125 0.234375 1.203125 -0.828125 1.203125 -2.953125 L 1.203125 -4.5625 L 4.421875 -4.5625 L 4.421875 -2.828125 C 4.421875 -2.703125 4.460938 -2.585938 4.546875 -2.484375 C 4.640625 -2.390625 4.75 -2.34375 4.875 -2.34375 L 6.375 -2.34375 C 6.507812 -2.34375 6.617188 -2.390625 6.703125 -2.484375 C 6.796875 -2.585938 6.84375 -2.703125 6.84375 -2.828125 L 6.84375 -5.890625 C 6.84375 -6.023438 6.796875 -6.140625 6.703125 -6.234375 C 6.617188 -6.328125 6.507812 -6.375 6.375 -6.375 L 4.203125 -6.375 C 2.203125 -6.375 1.203125 -7.4375 1.203125 -9.5625 L 1.203125 -12.6875 C 1.203125 -14.8125 2.203125 -15.875 4.203125 -15.875 L 6.890625 -15.875 C 8.878906 -15.875 9.875 -14.8125 9.875 -12.6875 Z M 9.875 -11.515625 " />
            </g>
        </g>
    </g>
    <g fill="#ff914d" fill-opacity="1">
        <g transform="translate(109.788983, 229.53655)">
            <g>
                <path
                    d="M 4.59375 -2.796875 L 8.328125 -2.796875 L 8.328125 0 L 1.203125 0 L 1.203125 -15.625 L 8.328125 -15.625 L 8.328125 -12.875 L 4.59375 -12.875 L 4.59375 -9.203125 L 8.09375 -9.203125 L 8.09375 -6.546875 L 4.59375 -6.546875 Z M 4.59375 -2.796875 " />
            </g>
        </g>
    </g>
    <g fill="#ff914d" fill-opacity="1">
        <g transform="translate(122.808736, 229.53655)">
            <g>
                <path
                    d="M 4.59375 -6.40625 L 4.59375 0 L 1.203125 0 L 1.203125 -15.625 L 7.21875 -15.625 C 9.21875 -15.625 10.21875 -14.5625 10.21875 -12.4375 L 10.21875 -10.625 C 10.21875 -9.34375 9.757812 -8.523438 8.84375 -8.171875 C 9.644531 -7.878906 10.046875 -7.21875 10.046875 -6.1875 L 10.046875 0 L 6.671875 0 L 6.671875 -5.921875 C 6.671875 -6.242188 6.515625 -6.40625 6.203125 -6.40625 Z M 4.59375 -13.328125 L 4.59375 -8.765625 L 6.375 -8.765625 C 6.507812 -8.765625 6.617188 -8.8125 6.703125 -8.90625 C 6.796875 -9.007812 6.84375 -9.125 6.84375 -9.25 L 6.84375 -12.84375 C 6.84375 -12.976562 6.796875 -13.09375 6.703125 -13.1875 C 6.617188 -13.28125 6.507812 -13.328125 6.375 -13.328125 Z M 4.59375 -13.328125 " />
            </g>
        </g>
    </g>
    <g fill="#ff914d" fill-opacity="1">
        <g transform="translate(137.929884, 229.53655)">
            <g>
                <path
                    d="M 7.515625 -15.625 L 10.78125 -15.625 L 7.53125 0 L 3.640625 0 L 0.40625 -15.625 L 3.703125 -15.625 L 5.609375 -4.234375 Z M 7.515625 -15.625 " />
            </g>
        </g>
    </g>
    <g fill="#ff914d" fill-opacity="1">
        <g transform="translate(153.099341, 229.53655)">
            <g>
                <path d="M 4.59375 -15.625 L 4.59375 0 L 1.203125 0 L 1.203125 -15.625 Z M 4.59375 -15.625 " />
            </g>
        </g>
    </g>
    <g fill="#ff914d" fill-opacity="1">
        <g transform="translate(162.930768, 229.53655)">
            <g>
                <path
                    d="M 7.03125 -2.5625 L 7.03125 -4.96875 L 10.25 -4.96875 L 10.25 -2.953125 C 10.25 -0.828125 9.25 0.234375 7.25 0.234375 L 4.203125 0.234375 C 2.203125 0.234375 1.203125 -0.828125 1.203125 -2.953125 L 1.203125 -12.6875 C 1.203125 -14.8125 2.203125 -15.875 4.203125 -15.875 L 7.25 -15.875 C 9.25 -15.875 10.25 -14.8125 10.25 -12.6875 L 10.25 -11.203125 L 7.03125 -11.203125 L 7.03125 -13.09375 C 7.03125 -13.21875 6.984375 -13.328125 6.890625 -13.421875 C 6.804688 -13.523438 6.703125 -13.578125 6.578125 -13.578125 L 5.046875 -13.578125 C 4.921875 -13.578125 4.8125 -13.523438 4.71875 -13.421875 C 4.632812 -13.328125 4.59375 -13.21875 4.59375 -13.09375 L 4.59375 -2.5625 C 4.59375 -2.4375 4.632812 -2.320312 4.71875 -2.21875 C 4.8125 -2.125 4.921875 -2.078125 5.046875 -2.078125 L 6.578125 -2.078125 C 6.703125 -2.078125 6.804688 -2.125 6.890625 -2.21875 C 6.984375 -2.320312 7.03125 -2.4375 7.03125 -2.5625 Z M 7.03125 -2.5625 " />
            </g>
        </g>
    </g>
    <g fill="#ff914d" fill-opacity="1">
        <g transform="translate(177.931151, 229.53655)">
            <g>
                <path
                    d="M 4.59375 -2.796875 L 8.328125 -2.796875 L 8.328125 0 L 1.203125 0 L 1.203125 -15.625 L 8.328125 -15.625 L 8.328125 -12.875 L 4.59375 -12.875 L 4.59375 -9.203125 L 8.09375 -9.203125 L 8.09375 -6.546875 L 4.59375 -6.546875 Z M 4.59375 -2.796875 " />
            </g>
        </g>
    </g>
    <g fill="#ff914d" fill-opacity="1">
        <g transform="translate(190.950907, 229.53655)">
            <g />
        </g>
    </g>
    <g fill="#ff914d" fill-opacity="1">
        <g transform="translate(199.767861, 229.53655)">
            <g>
                <path
                    d="M 7.03125 -2.5625 L 7.03125 -4.96875 L 10.25 -4.96875 L 10.25 -2.953125 C 10.25 -0.828125 9.25 0.234375 7.25 0.234375 L 4.203125 0.234375 C 2.203125 0.234375 1.203125 -0.828125 1.203125 -2.953125 L 1.203125 -12.6875 C 1.203125 -14.8125 2.203125 -15.875 4.203125 -15.875 L 7.25 -15.875 C 9.25 -15.875 10.25 -14.8125 10.25 -12.6875 L 10.25 -11.203125 L 7.03125 -11.203125 L 7.03125 -13.09375 C 7.03125 -13.21875 6.984375 -13.328125 6.890625 -13.421875 C 6.804688 -13.523438 6.703125 -13.578125 6.578125 -13.578125 L 5.046875 -13.578125 C 4.921875 -13.578125 4.8125 -13.523438 4.71875 -13.421875 C 4.632812 -13.328125 4.59375 -13.21875 4.59375 -13.09375 L 4.59375 -2.5625 C 4.59375 -2.4375 4.632812 -2.320312 4.71875 -2.21875 C 4.8125 -2.125 4.921875 -2.078125 5.046875 -2.078125 L 6.578125 -2.078125 C 6.703125 -2.078125 6.804688 -2.125 6.890625 -2.21875 C 6.984375 -2.320312 7.03125 -2.4375 7.03125 -2.5625 Z M 7.03125 -2.5625 " />
            </g>
        </g>
    </g>
    <g fill="#ff914d" fill-opacity="1">
        <g transform="translate(214.768244, 229.53655)">
            <g>
                <path
                    d="M 4.59375 -2.796875 L 8.328125 -2.796875 L 8.328125 0 L 1.203125 0 L 1.203125 -15.625 L 8.328125 -15.625 L 8.328125 -12.875 L 4.59375 -12.875 L 4.59375 -9.203125 L 8.09375 -9.203125 L 8.09375 -6.546875 L 4.59375 -6.546875 Z M 4.59375 -2.796875 " />
            </g>
        </g>
    </g>
    <g fill="#ff914d" fill-opacity="1">
        <g transform="translate(227.788001, 229.53655)">
            <g>
                <path
                    d="M 10.171875 0 L 6.78125 0 L 6.78125 -12.96875 C 6.78125 -13.101562 6.734375 -13.21875 6.640625 -13.3125 C 6.554688 -13.40625 6.453125 -13.453125 6.328125 -13.453125 L 5.03125 -13.453125 C 4.894531 -13.453125 4.78125 -13.40625 4.6875 -13.3125 C 4.601562 -13.21875 4.5625 -13.101562 4.5625 -12.96875 L 4.5625 0 L 1.1875 0 L 1.1875 -12.6875 C 1.1875 -14.8125 2.179688 -15.875 4.171875 -15.875 L 7.171875 -15.875 C 9.171875 -15.875 10.171875 -14.8125 10.171875 -12.6875 Z M 10.171875 0 " />
            </g>
        </g>
    </g>
    <g fill="#ff914d" fill-opacity="1">
        <g transform="translate(242.95746, 229.53655)">
            <g>
                <path
                    d="M 0.3125 -12.75 L 0.3125 -15.625 L 8.765625 -15.625 L 8.765625 -12.75 L 6.234375 -12.75 L 6.234375 0 L 2.84375 0 L 2.84375 -12.75 Z M 0.3125 -12.75 " />
            </g>
        </g>
    </g>
    <g fill="#ff914d" fill-opacity="1">
        <g transform="translate(256.001371, 229.53655)">
            <g>
                <path
                    d="M 4.59375 -2.796875 L 8.328125 -2.796875 L 8.328125 0 L 1.203125 0 L 1.203125 -15.625 L 8.328125 -15.625 L 8.328125 -12.875 L 4.59375 -12.875 L 4.59375 -9.203125 L 8.09375 -9.203125 L 8.09375 -6.546875 L 4.59375 -6.546875 Z M 4.59375 -2.796875 " />
            </g>
        </g>
    </g>
    <g fill="#ff914d" fill-opacity="1">
        <g transform="translate(269.021127, 229.53655)">
            <g>
                <path
                    d="M 4.59375 -6.40625 L 4.59375 0 L 1.203125 0 L 1.203125 -15.625 L 7.21875 -15.625 C 9.21875 -15.625 10.21875 -14.5625 10.21875 -12.4375 L 10.21875 -10.625 C 10.21875 -9.34375 9.757812 -8.523438 8.84375 -8.171875 C 9.644531 -7.878906 10.046875 -7.21875 10.046875 -6.1875 L 10.046875 0 L 6.671875 0 L 6.671875 -5.921875 C 6.671875 -6.242188 6.515625 -6.40625 6.203125 -6.40625 Z M 4.59375 -13.328125 L 4.59375 -8.765625 L 6.375 -8.765625 C 6.507812 -8.765625 6.617188 -8.8125 6.703125 -8.90625 C 6.796875 -9.007812 6.84375 -9.125 6.84375 -9.25 L 6.84375 -12.84375 C 6.84375 -12.976562 6.796875 -13.09375 6.703125 -13.1875 C 6.617188 -13.28125 6.507812 -13.328125 6.375 -13.328125 Z M 4.59375 -13.328125 " />
            </g>
        </g>
    </g>
</svg>