<svg xmlns="http://www.w3.org/2000/svg" width="253" height="57"><path d="M191.269 1.498h-4.619l.006 27.455h4.611l.002-27.456m-54.901 3.695c-5.523 0-10.02 4.502-10.02 10.032 0 5.532 4.495 10.032 10.02 10.032 5.524 0 10.02-4.5 10.02-10.032 0-5.53-4.497-10.032-10.02-10.032m14.441 10.032c0 7.986-6.468 14.458-14.442 14.458s-14.438-6.472-14.438-14.458c0-7.985 6.464-14.459 14.438-14.459s14.442 6.474 14.442 14.459m-87.625 9.324v-7.599c0-1.505-.008-2.837-.159-3.876-.711-4.964-3.957-7.956-9.078-7.956-5.541 0-9.987 4.664-9.987 10.184 0 5.006 3.049 8.412 7.925 9.112 1.118.117 2.505.133 3.469.133l7.83.002m.817-19.899c1.96 2.081 3.142 4.566 3.594 7.611.143.961.224 2.431.224 4.477 0 4.48-.01 4.48-.004 12.222H55.218c-1.427 0-2.601-.011-3.451-.114-7.495-.91-12.234-6.335-12.234-13.544 0-8.103 6.524-14.564 14.414-14.564 4.175 0 7.664 1.371 10.054 3.91m137.003-3.152l-.001 12.116c0 3.042.23 4.011.454 4.823 1.058 3.88 4.184 6.661 8.406 6.661 4.274 0 7.53-2.964 8.432-7.124.345-1.6.339-2.72.339-4.825l.002-11.645 4.646-.004s-.006 7.261-.006 11.421c0 2.199.026 3.664-.241 5.207-1.223 6.984-6.692 11.545-13.172 11.545-6.28 0-11.182-4.039-12.869-9.906-.593-2.065-.636-4.513-.636-6.353 0-6.234.003-11.914.003-11.914l4.643-.002m-24.089 27.456s.004-5.804.004-12.116c0-3.042-.23-4.013-.451-4.823-1.06-3.878-4.186-6.662-8.411-6.662-4.275 0-7.529 2.965-8.429 7.124-.348 1.604-.344 2.721-.344 4.825v11.654l-4.644.006s.007-7.272.007-11.431c0-2.199-.027-3.664.241-5.209C156.106 5.338 161.577.775 168.057.775c6.28 0 11.182 4.041 12.868 9.905.597 2.065.639 4.515.639 6.354 0 6.235-.004 11.917-.004 11.917h-4.644m-81.946 0V16.835c0-3.042-.229-4.013-.451-4.823-1.06-3.878-4.186-6.662-8.409-6.662-4.274 0-7.528 2.965-8.43 7.124-.347 1.604-.341 2.721-.341 4.825l-.002 11.654-4.645.006s.006-7.272.006-11.431c0-2.199-.027-3.664.243-5.209C74.162 5.338 79.63.775 86.11.775c6.281 0 11.184 4.041 12.87 9.905.593 2.065.636 4.515.636 6.354 0 6.235-.003 11.917-.003 11.917H94.97m148.2.002h-14.702v-4.415h14.601c.977 0 1.632.012 2.218-.139 1.303-.333 2.649-1.639 2.649-3.484 0-1.844-1.219-3.111-2.722-3.49-.446-.114-.958-.124-1.756-.124l-7.119.003c-1.542 0-2.305-.054-2.809-.156a7.907 7.907 0 01-6.327-7.75c0-3.797 2.649-6.906 6.194-7.701.722-.165 1.274-.207 2.724-.207l14.7-.001V5.89h-14.642c-1.092 0-1.517.03-2.082.229a3.448 3.448 0 00-2.277 3.279c0 1.671 1.012 2.732 2.149 3.207.456.188.945.284 2.397.284l8.172-.002c4.429.002 8.016 3.597 8.014 8.028a8.043 8.043 0 01-5.898 7.755c-.672.185-1.588.283-3.485.283M121.998 5.899V1.498H99.833v4.401h8.757V16.15c0 1.853.026 3.433.212 4.878.483 3.715 2.384 6.718 5.321 8.947l2.735-3.637c-1.907-1.623-2.954-3.383-3.404-5.697-.199-1.024-.238-2.316-.238-4.444l.003-10.299h8.779M13.05 20.112c.877-.165 1.951-.743 2.684-1.478a5.57 5.57 0 00-3.01-9.425c-.298-.049-.923-.074-1.735-.074H6.061c-.516 0-.808-.027-1-.079-.846-.225-1.563-.946-1.569-2.087a2.099 2.099 0 011.466-2.014c.338-.106.613-.119 1.166-.119l10.08-.004v-3.33l-9.733.004c-1.138 0-1.925.062-2.365.177a5.455 5.455 0 00-2.491 1.431A5.468 5.468 0 00.011 6.991a5.47 5.47 0 001.602 3.877 5.311 5.311 0 003.002 1.529c.417.062.809.077 1.47.077h4.803c.875 0 1.324.028 1.728.221.692.331 1.27.984 1.27 2.006a2.21 2.21 0 01-1.478 2.09c-.411.146-.88.142-1.497.142-2.492-.003-10.054 0-10.054 0l-.001 3.33 10.067.001c.816 0 1.291.004 2.127-.152M17.793 4.83h5.211l-.001 4.682c0 4.167 1.484 6.977 4.245 9.085l2.075-2.762c-1.95-1.667-2.81-3.614-2.81-6.323 0-3.923.004-4.682.004-4.682h5.564V1.498H17.793V4.83" fill="#6F2554"/><path d="M104.828 51.284c0-.573-.139-1.052-.433-1.422-.322-.432-.787-.648-1.403-.648-.601 0-1.079.216-1.404.632-.294.386-.432.85-.432 1.424v.23h3.672v-.216zm1.035 1.282h-4.707v.603c0 .54.138 1.004.431 1.373.356.451.881.682 1.576.682.431 0 1.219-.154 2.375-.477l.325 1.171c-1.081.358-1.977.541-2.701.541-1.035 0-1.868-.339-2.485-1.021-.571-.6-.848-1.358-.848-2.269V51.27c0-.898.277-1.656.848-2.288.602-.665 1.373-1.004 2.315-1.004.941 0 1.729.339 2.329 1.019.556.635.834 1.391.834 2.273v1.002c0 .202-.092.294-.291.294zm7.048-1.282c0-.573-.138-1.052-.431-1.422-.325-.432-.788-.648-1.404-.648-.602 0-1.079.216-1.404.632-.294.386-.433.85-.433 1.424v.23h3.672v-.216zm1.036 1.282h-4.708v.603c0 .54.139 1.004.433 1.373.355.451.88.682 1.574.682.432 0 1.218-.154 2.375-.477l.326 1.171c-1.083.358-1.977.541-2.703.541-1.033 0-1.866-.339-2.483-1.021-.57-.6-.848-1.358-.848-2.269V51.27c0-.898.278-1.656.848-2.288.603-.665 1.373-1.004 2.315-1.004.941 0 1.726.339 2.33 1.019.554.635.832 1.391.832 2.273v1.002c0 .202-.091.294-.291.294zm8.206 3.771h-1.096v-5.224c0-1.267-.493-1.899-1.481-1.899-.632 0-1.311.168-2.021.509v6.614h-1.329V48.1h1.113l.093.541c.926-.447 1.634-.663 2.146-.663.878 0 1.588.292 2.098.863.477.541.708 1.253.708 2.118v5.13c0 .17-.076.247-.231.247m7.682.123c-.631 0-1.434-.155-2.375-.462l.231-1.207c1.004.293 1.714.434 2.146.434.91 0 1.357-.37 1.357-1.128 0-.447-.308-.82-.927-1.128-1.11-.54-1.682-.836-1.728-.851-.618-.447-.925-1.065-.925-1.852 0-1.408 1.081-2.287 2.576-2.287.634 0 1.297.139 2.007.4l-.308 1.144c-.619-.202-1.189-.308-1.699-.308-.847 0-1.281.356-1.281 1.051 0 .417.309.771.928 1.05 1.033.479 1.62.755 1.743.835.617.446.924 1.096.924 1.946 0 1.437-1.047 2.363-2.669 2.363m8.735-3.832h-1.621c-1.081 0-1.62.417-1.62 1.253 0 .417.107.758.321 1.02.251.309.59.462 1.036.462.602 0 1.219-.17 1.884-.494v-2.24zm.23 3.709l-.078-.557c-.755.451-1.449.68-2.082.68-1.543 0-2.639-.987-2.639-2.55 0-.786.292-1.389.864-1.792.494-.354 1.158-.54 1.992-.54h1.713v-.464c0-1.312-.448-1.899-1.545-1.899-.601 0-1.327.123-2.191.371l-.323-1.191c1.002-.278 1.835-.416 2.514-.416 1.852 0 2.871 1.127 2.871 2.92v5.439H138.8zm8.965.001h-1.097v-5.224c0-1.267-.492-1.899-1.482-1.899-.632 0-1.311.168-2.02.509v6.614h-1.328V48.1h1.112l.093.541c.927-.447 1.635-.663 2.143-.663.881 0 1.59.292 2.101.863.477.541.707 1.253.707 2.118v5.13c0 .17-.075.247-.229.247m4.982.123c-.771 0-1.374-.245-1.805-.742-.371-.416-.557-.956-.557-1.591v-5.007h-1.14V48.1h1.188l.2-2.485h1.081V48.1h1.836v1.021h-1.836v4.851c0 .834.339 1.252 1.033 1.252.292 0 .633-.047 1.003-.122l.139 1.173a4.1 4.1 0 01-1.142.184m7.67-5.175c0-.573-.141-1.052-.434-1.422-.324-.432-.786-.648-1.404-.648-.602 0-1.081.216-1.405.632-.291.386-.432.85-.432 1.424v.23h3.675v-.216zm1.033 1.283h-4.708v.602c0 .54.139 1.004.432 1.373.355.451.881.682 1.575.682.432 0 1.219-.154 2.375-.477l.326 1.171c-1.082.358-1.977.541-2.702.541-1.034 0-1.867-.339-2.484-1.021-.57-.6-.848-1.358-.848-2.269V51.27c0-.898.278-1.656.848-2.288.603-.665 1.372-1.004 2.315-1.004.942 0 1.728.339 2.33 1.019.557.635.832 1.391.832 2.273v1.002c0 .202-.09.295-.291.295zm7.265-1.176c0-.649-.155-1.159-.463-1.545-.339-.416-.848-.632-1.51-.632-1.283 0-1.914.726-1.914 2.177v1.653c0 1.453.647 2.18 1.943 2.18.649 0 1.142-.216 1.482-.633.307-.388.464-.896.464-1.547v-1.653zm.448 4.11c-.603.636-1.404.958-2.392.958-.986 0-1.789-.323-2.393-.957-.586-.602-.878-1.39-.878-2.333V51.27c0-.944.292-1.733.878-2.349.603-.634 1.391-.943 2.364-.943 1.002 0 1.788.309 2.389.941.604.618.897 1.407.897 2.351v1.899c0 .943-.293 1.731-.865 2.333zm8.872.836h-1.095v-5.224c0-1.267-.496-1.899-1.484-1.899-.632 0-1.31.168-2.02.509v6.614h-1.326V48.1h1.11l.093.541c.925-.447 1.637-.663 2.143-.663.88 0 1.59.292 2.1.863.479.541.711 1.254.711 2.118v5.13c0 .17-.078.247-.232.247m5.414.001l-.186-1.128 3.997-5.995h-3.828V48.1h5.184l.156 1.114-3.981 6.01h4.151v1.113h-5.493m8.439-9.828a.897.897 0 01-.896-.894c0-.482.403-.898.896-.898s.894.416.894.898a.896.896 0 01-.894.894zm.432 9.827h-1.096v-7.217l-.987-.092V48.1h2.315v7.989c0 .17-.079.247-.232.247zm7.298-5.052c0-.573-.139-1.052-.433-1.422-.323-.432-.787-.648-1.404-.648-.601 0-1.079.216-1.404.632-.293.386-.432.85-.432 1.424v.23h3.673v-.216zm1.034 1.283h-4.707v.602c0 .54.139 1.004.431 1.373.357.451.881.682 1.573.682.435 0 1.219-.154 2.378-.477l.325 1.171c-1.08.358-1.974.541-2.703.541-1.032 0-1.865-.339-2.481-1.021-.572-.6-.849-1.358-.849-2.269V51.27c0-.898.277-1.656.848-2.288.601-.665 1.372-1.004 2.314-1.004.943 0 1.729.339 2.329 1.019.556.635.834 1.391.834 2.273v1.002c0 .202-.092.295-.291.295zm6.819 3.77l-2.069-3.88-1.141.31v3.322c0 .17-.079.247-.232.247h-1.095V44.777h1.327v6.77l1.466-.402c.279-.078.493-.293.648-.68l.957-2.365h1.343l-1.143 2.843a2.12 2.12 0 01-.941 1.114l2.362 4.279h-1.484m7.793-5.052c0-.573-.139-1.052-.432-1.422-.326-.432-.788-.648-1.405-.648-.603 0-1.081.216-1.404.632-.294.386-.432.85-.432 1.424v.23h3.672v-.216zm1.033 1.283h-4.706v.602c0 .54.138 1.004.432 1.373.355.451.878.682 1.575.682.43 0 1.218-.154 2.375-.477l.324 1.171c-1.081.358-1.975.541-2.699.541-1.034 0-1.868-.339-2.485-1.018-.57-.603-.848-1.361-.848-2.272V51.27c0-.898.278-1.656.848-2.288.601-.665 1.372-1.004 2.314-1.004s1.727.339 2.331 1.019c.554.635.832 1.391.832 2.273v1.002c0 .202-.093.295-.293.295zm8.209 3.77h-1.097v-5.224c0-1.267-.493-1.899-1.481-1.899-.632 0-1.311.168-2.021.509v6.614h-1.328V48.1h1.112l.092.541c.926-.447 1.636-.663 2.146-.663.879 0 1.587.292 2.099.863.476.541.708 1.254.708 2.118v5.13c0 .17-.077.247-.23.247m8.284.001h-1.096v-5.209c0-1.283-.492-1.916-1.483-1.916-.632 0-1.294.169-2.004.509v6.615h-1.328V44.777h1.328v2.057c0 .663-.014 1.234-.061 1.714.908-.388 1.603-.571 2.066-.571.88 0 1.59.291 2.1.863.478.541.71 1.254.71 2.118v5.13c0 .17-.077.247-.232.247m7.235.002l-.093-.541c-.927.447-1.636.663-2.144.663-.88 0-1.574-.291-2.085-.864-.477-.541-.708-1.253-.708-2.116V48.41c0-.203.093-.31.277-.31h1.048v5.224c0 1.267.495 1.9 1.468 1.9.633 0 1.311-.17 2.02-.511V48.1h1.328v8.237h-1.113m4.366-9.828a.896.896 0 01-.895-.894c0-.482.403-.898.895-.898.494 0 .896.416.896.898a.897.897 0 01-.896.894zm.432 9.827h-1.095v-7.217l-.987-.092V48.1h2.315v7.989c0 .17-.078.247-.233.247zm4.598.123c-.632 0-1.435-.155-2.375-.462l.232-1.207c1.002.293 1.711.434 2.143.434.911 0 1.358-.37 1.358-1.128 0-.447-.308-.82-.925-1.128-1.113-.54-1.682-.836-1.729-.851-.617-.447-.927-1.065-.927-1.852 0-1.408 1.082-2.287 2.579-2.287.632 0 1.296.139 2.004.4l-.308 1.144c-.618-.202-1.187-.308-1.696-.308-.85 0-1.281.356-1.281 1.051 0 .417.308.771.925 1.05 1.033.479 1.62.755 1.744.835.616.446.925 1.096.925 1.946 0 1.437-1.049 2.363-2.669 2.363" fill="#DF5135"/></svg>