<svg xmlns="http://www.w3.org/2000/svg" xmlns:xlink="http://www.w3.org/1999/xlink" width="340" zoomAndPan="magnify"
    viewBox="0 0 255 112.499997" height="150" preserveAspectRatio="xMidYMid meet" version="1.0">
    <defs>
        <g />
        <clipPath id="be6d14e339">
            <path d="M 11.765625 42 L 73 42 L 73 100.800781 L 11.765625 100.800781 Z M 11.765625 42 "
                clip-rule="nonzero" />
        </clipPath>
        <clipPath id="f94fe4bc6b">
            <path d="M 39 11.199219 L 101.367188 11.199219 L 101.367188 62 L 39 62 Z M 39 11.199219 "
                clip-rule="nonzero" />
        </clipPath>
    </defs>
    <g clip-path="url(#be6d14e339)">
        <path fill="#f9b041"
            d="M 69.203125 80.308594 C 67.910156 79.015625 66.71875 77.632812 65.628906 76.167969 L 65.628906 84.703125 C 65.640625 85.304688 65.59375 85.902344 65.484375 86.496094 C 65.378906 87.089844 65.214844 87.667969 64.992188 88.226562 C 64.769531 88.789062 64.492188 89.320312 64.164062 89.828125 C 63.835938 90.332031 63.460938 90.800781 63.039062 91.230469 C 62.617188 91.660156 62.15625 92.046875 61.660156 92.386719 C 61.160156 92.722656 60.632812 93.011719 60.078125 93.242188 C 59.519531 93.476562 58.945312 93.652344 58.355469 93.773438 C 57.765625 93.890625 57.167969 93.953125 56.566406 93.953125 C 55.960938 93.953125 55.367188 93.890625 54.773438 93.773438 C 54.183594 93.652344 53.609375 93.476562 53.054688 93.242188 C 52.5 93.011719 51.972656 92.722656 51.472656 92.386719 C 50.972656 92.046875 50.511719 91.660156 50.089844 91.230469 C 49.667969 90.800781 49.292969 90.332031 48.964844 89.828125 C 48.636719 89.320312 48.363281 88.789062 48.140625 88.226562 C 47.917969 87.667969 47.753906 87.089844 47.644531 86.496094 C 47.539062 85.902344 47.492188 85.304688 47.503906 84.703125 L 47.503906 65.0625 L 27.871094 65.0625 C 26.910156 65.0625 25.976562 64.914062 25.066406 64.621094 C 24.152344 64.324219 23.308594 63.890625 22.535156 63.328125 C 21.761719 62.761719 21.09375 62.09375 20.53125 61.316406 C 19.96875 60.539062 19.539062 59.695312 19.246094 58.78125 C 18.953125 57.871094 18.808594 56.933594 18.808594 55.976562 C 18.8125 55.015625 18.964844 54.082031 19.265625 53.171875 C 19.566406 52.261719 20 51.421875 20.566406 50.648438 C 21.132812 49.875 21.804688 49.207031 22.585938 48.648438 L 23.269531 48.15625 C 22.386719 47.417969 21.5625 46.617188 20.800781 45.75 C 19.992188 44.832031 19.234375 43.875 18.53125 42.875 L 18.195312 43.121094 C 17.527344 43.628906 16.898438 44.179688 16.3125 44.78125 C 15.726562 45.386719 15.191406 46.03125 14.710938 46.714844 C 14.226562 47.402344 13.796875 48.121094 13.425781 48.875 C 13.054688 49.628906 12.742188 50.40625 12.492188 51.207031 C 12.242188 52.007812 12.058594 52.824219 11.933594 53.65625 C 11.8125 54.488281 11.753906 55.324219 11.765625 56.164062 C 11.773438 57.003906 11.847656 57.835938 11.984375 58.664062 C 12.125 59.492188 12.324219 60.304688 12.589844 61.101562 C 12.855469 61.898438 13.183594 62.667969 13.570312 63.414062 C 13.957031 64.160156 14.398438 64.871094 14.894531 65.546875 C 15.394531 66.226562 15.941406 66.859375 16.539062 67.449219 C 17.132812 68.039062 17.773438 68.582031 18.453125 69.074219 C 19.136719 69.5625 19.851562 70 20.601562 70.378906 C 21.351562 70.757812 22.125 71.074219 22.921875 71.332031 C 23.722656 71.589844 24.535156 71.785156 25.367188 71.917969 C 26.195312 72.046875 27.03125 72.113281 27.871094 72.113281 L 40.453125 72.113281 L 40.453125 84.6875 C 40.445312 85.222656 40.464844 85.753906 40.507812 86.285156 C 40.554688 86.816406 40.625 87.34375 40.722656 87.867188 C 40.816406 88.390625 40.941406 88.910156 41.089844 89.421875 C 41.238281 89.933594 41.410156 90.433594 41.609375 90.929688 C 41.808594 91.425781 42.03125 91.90625 42.277344 92.378906 C 42.523438 92.851562 42.792969 93.3125 43.082031 93.757812 C 43.375 94.203125 43.6875 94.632812 44.023438 95.046875 C 44.355469 95.464844 44.710938 95.859375 45.085938 96.242188 C 45.460938 96.621094 45.851562 96.980469 46.261719 97.320312 C 46.671875 97.660156 47.09375 97.980469 47.535156 98.28125 C 47.976562 98.578125 48.433594 98.855469 48.902344 99.109375 C 49.371094 99.359375 49.851562 99.589844 50.34375 99.796875 C 50.832031 100.003906 51.335938 100.183594 51.84375 100.339844 C 52.351562 100.496094 52.871094 100.625 53.390625 100.730469 C 53.914062 100.835938 54.441406 100.914062 54.96875 100.96875 C 55.5 101.019531 56.03125 101.046875 56.566406 101.046875 C 57.097656 101.046875 57.628906 101.019531 58.160156 100.96875 C 58.691406 100.914062 59.214844 100.835938 59.738281 100.730469 C 60.261719 100.625 60.777344 100.496094 61.285156 100.339844 C 61.796875 100.183594 62.296875 100.003906 62.789062 99.796875 C 63.28125 99.589844 63.757812 99.359375 64.226562 99.109375 C 64.695312 98.855469 65.152344 98.578125 65.59375 98.28125 C 66.035156 97.980469 66.460938 97.660156 66.871094 97.320312 C 67.28125 96.980469 67.671875 96.621094 68.046875 96.242188 C 68.417969 95.859375 68.773438 95.464844 69.109375 95.046875 C 69.441406 94.632812 69.753906 94.203125 70.046875 93.757812 C 70.339844 93.3125 70.609375 92.851562 70.855469 92.378906 C 71.101562 91.90625 71.324219 91.425781 71.519531 90.929688 C 71.71875 90.433594 71.894531 89.933594 72.042969 89.421875 C 72.191406 88.910156 72.3125 88.390625 72.410156 87.867188 C 72.507812 87.34375 72.578125 86.816406 72.621094 86.285156 C 72.667969 85.753906 72.683594 85.222656 72.675781 84.6875 L 72.675781 83.242188 C 71.4375 82.359375 70.28125 81.382812 69.203125 80.308594 Z M 69.203125 80.308594 "
            fill-opacity="1" fill-rule="nonzero" />
    </g>
    <g clip-path="url(#f94fe4bc6b)">
        <path fill="#fb977d"
            d="M 41.976562 42.996094 C 41.441406 44.246094 40.699219 45.363281 39.75 46.335938 L 39.980469 46.867188 L 39.980469 46.921875 L 47.503906 46.921875 L 47.503906 27.304688 C 47.515625 26.71875 47.582031 26.136719 47.707031 25.5625 C 47.832031 24.988281 48.011719 24.433594 48.246094 23.894531 C 48.476562 23.355469 48.761719 22.84375 49.09375 22.359375 C 49.425781 21.875 49.800781 21.425781 50.222656 21.015625 C 50.640625 20.605469 51.09375 20.238281 51.585938 19.914062 C 52.078125 19.59375 52.59375 19.320312 53.140625 19.097656 C 53.683594 18.875 54.242188 18.707031 54.820312 18.59375 C 55.394531 18.480469 55.976562 18.425781 56.566406 18.425781 C 57.152344 18.425781 57.734375 18.480469 58.3125 18.59375 C 58.886719 18.707031 59.449219 18.875 59.992188 19.097656 C 60.535156 19.320312 61.054688 19.59375 61.542969 19.914062 C 62.035156 20.238281 62.488281 20.605469 62.910156 21.015625 C 63.328125 21.425781 63.707031 21.875 64.039062 22.359375 C 64.371094 22.84375 64.652344 23.355469 64.886719 23.894531 C 65.121094 24.433594 65.296875 24.988281 65.421875 25.5625 C 65.546875 26.136719 65.617188 26.71875 65.628906 27.304688 L 65.628906 46.9375 L 69 46.9375 C 70.121094 46.394531 71.308594 46.121094 72.554688 46.121094 C 73.804688 46.121094 74.992188 46.394531 76.113281 46.9375 L 85.253906 46.9375 C 85.847656 46.9375 86.4375 46.996094 87.019531 47.113281 C 87.601562 47.230469 88.167969 47.402344 88.71875 47.632812 C 89.269531 47.859375 89.789062 48.136719 90.285156 48.46875 C 90.777344 48.800781 91.234375 49.175781 91.65625 49.59375 C 92.078125 50.015625 92.453125 50.472656 92.78125 50.96875 C 93.113281 51.460938 93.394531 51.984375 93.621094 52.535156 C 93.847656 53.082031 94.019531 53.648438 94.136719 54.230469 C 94.253906 54.816406 94.3125 55.40625 94.3125 56 C 94.3125 56.550781 94.261719 57.097656 94.160156 57.640625 C 96.71875 58.148438 98.863281 59.152344 100.128906 61.394531 C 100.195312 61.515625 100.253906 61.636719 100.3125 61.765625 L 100.550781 61.054688 C 100.75 60.453125 100.910156 59.839844 101.039062 59.21875 C 101.164062 58.59375 101.253906 57.96875 101.308594 57.335938 C 101.359375 56.703125 101.375 56.066406 101.351562 55.433594 C 101.328125 54.796875 101.269531 54.167969 101.171875 53.539062 C 101.074219 52.914062 100.941406 52.292969 100.773438 51.679688 C 100.601562 51.070312 100.394531 50.46875 100.152344 49.882812 C 99.914062 49.296875 99.636719 48.722656 99.328125 48.167969 C 99.019531 47.613281 98.679688 47.078125 98.308594 46.566406 C 97.933594 46.050781 97.535156 45.558594 97.105469 45.09375 C 96.671875 44.625 96.21875 44.183594 95.734375 43.773438 C 95.253906 43.359375 94.75 42.976562 94.21875 42.621094 C 93.691406 42.269531 93.148438 41.949219 92.582031 41.660156 C 92.015625 41.371094 91.433594 41.117188 90.839844 40.894531 C 90.242188 40.675781 89.636719 40.492188 89.019531 40.34375 C 88.402344 40.195312 87.777344 40.082031 87.148438 40.007812 C 86.515625 39.933594 85.882812 39.898438 85.25 39.898438 L 72.675781 39.898438 L 72.675781 27.304688 C 72.660156 26.257812 72.542969 25.222656 72.324219 24.199219 C 72.109375 23.171875 71.792969 22.179688 71.382812 21.214844 C 70.96875 20.253906 70.46875 19.335938 69.878906 18.472656 C 69.289062 17.605469 68.617188 16.804688 67.871094 16.070312 C 67.125 15.335938 66.316406 14.679688 65.441406 14.101562 C 64.566406 13.523438 63.644531 13.039062 62.675781 12.640625 C 61.707031 12.242188 60.707031 11.945312 59.679688 11.742188 C 58.652344 11.539062 57.613281 11.4375 56.566406 11.4375 C 55.515625 11.4375 54.480469 11.539062 53.453125 11.742188 C 52.421875 11.945312 51.425781 12.242188 50.457031 12.640625 C 49.484375 13.039062 48.5625 13.523438 47.691406 14.101562 C 46.816406 14.679688 46.003906 15.335938 45.257812 16.070312 C 44.511719 16.804688 43.84375 17.605469 43.253906 18.472656 C 42.664062 19.335938 42.160156 20.253906 41.75 21.214844 C 41.335938 22.179688 41.023438 23.171875 40.804688 24.199219 C 40.585938 25.222656 40.46875 26.257812 40.453125 27.304688 L 40.453125 27.601562 C 42.347656 32.222656 43.429688 39.460938 41.976562 42.996094 Z M 41.976562 42.996094 "
            fill-opacity="1" fill-rule="nonzero" />
    </g>
    <path fill="#f9b041"
        d="M 16.859375 34.730469 C 17.167969 37.050781 19.53125 41.195312 22.355469 44.382812 C 23.515625 45.6875 25.242188 47.367188 26.867188 47.964844 C 28.359375 48.480469 29.886719 48.621094 31.449219 48.390625 L 32.261719 50.246094 C 32.382812 50.523438 32.5625 50.757812 32.804688 50.945312 C 33.046875 51.132812 33.316406 51.25 33.617188 51.300781 L 33.703125 51.570312 L 34.554688 51.199219 C 34.640625 51.441406 34.730469 51.660156 34.824219 51.871094 C 35.390625 53.171875 36.144531 54.347656 37.082031 55.410156 C 38.738281 57.238281 40.730469 58.550781 43.0625 59.355469 C 46.382812 60.546875 49.167969 60.148438 51.632812 59.796875 C 55.851562 59.191406 58.636719 58.792969 62.46875 66.878906 C 64.675781 71.539062 67.585938 75.785156 70.660156 78.839844 C 74.316406 82.460938 78.199219 84.40625 81.890625 84.503906 C 87.367188 84.605469 92.1875 80.847656 96.195312 73.273438 C 98.921875 68.136719 99.601562 64.675781 98.324219 62.417969 C 96.746094 59.609375 92.851562 59.390625 88.335938 59.136719 C 84.898438 58.941406 81.015625 58.722656 77.945312 57.28125 C 78.0625 57.0625 78.171875 56.839844 78.265625 56.605469 C 78.355469 56.375 78.4375 56.140625 78.5 55.902344 C 78.566406 55.660156 78.613281 55.417969 78.648438 55.171875 C 78.683594 54.925781 78.703125 54.675781 78.707031 54.429688 C 78.714844 54.179688 78.703125 53.933594 78.679688 53.683594 C 78.652344 53.4375 78.613281 53.191406 78.558594 52.949219 C 78.5 52.707031 78.433594 52.46875 78.347656 52.234375 C 78.261719 52 78.164062 51.773438 78.054688 51.550781 C 77.941406 51.328125 77.816406 51.113281 77.675781 50.90625 C 77.539062 50.699219 77.390625 50.503906 77.226562 50.3125 C 77.066406 50.125 76.890625 49.945312 76.707031 49.78125 C 76.523438 49.613281 76.332031 49.457031 76.128906 49.3125 C 75.925781 49.167969 75.714844 49.035156 75.496094 48.917969 C 75.277344 48.800781 75.050781 48.695312 74.820312 48.605469 C 74.589844 48.511719 74.351562 48.4375 74.113281 48.375 C 73.871094 48.3125 73.625 48.265625 73.378906 48.234375 C 73.132812 48.199219 72.886719 48.183594 72.636719 48.179688 C 72.386719 48.179688 72.140625 48.191406 71.894531 48.21875 C 71.644531 48.246094 71.402344 48.289062 71.160156 48.347656 C 70.917969 48.402344 70.679688 48.476562 70.445312 48.5625 C 70.214844 48.648438 69.984375 48.75 69.765625 48.863281 C 69.542969 48.976562 69.332031 49.105469 69.125 49.246094 C 68.917969 49.382812 68.722656 49.535156 68.535156 49.699219 C 68.347656 49.863281 68.171875 50.039062 68.007812 50.226562 C 67.839844 50.410156 67.6875 50.605469 67.546875 50.808594 C 67.402344 51.011719 67.273438 51.226562 67.15625 51.445312 C 67.042969 51.664062 66.9375 51.890625 66.851562 52.125 C 66.761719 52.355469 66.6875 52.59375 66.625 52.835938 C 66.566406 53.074219 66.523438 53.320312 66.492188 53.566406 C 66.460938 53.8125 66.445312 54.0625 66.445312 54.308594 C 66.445312 54.558594 66.460938 54.808594 66.492188 55.054688 C 66.519531 55.300781 66.566406 55.546875 66.625 55.785156 C 66.6875 56.027344 66.761719 56.265625 66.847656 56.496094 C 66.9375 56.730469 67.039062 56.957031 67.15625 57.175781 C 67.273438 57.394531 67.402344 57.609375 67.542969 57.8125 C 67.683594 58.015625 67.839844 58.210938 68.003906 58.398438 C 68.171875 58.582031 68.347656 58.757812 68.535156 58.921875 C 68.71875 59.085938 68.917969 59.238281 69.121094 59.378906 C 69.328125 59.519531 69.542969 59.644531 69.761719 59.757812 C 69.984375 59.875 70.210938 59.972656 70.441406 60.058594 C 70.675781 60.148438 70.914062 60.21875 71.15625 60.277344 C 71.398438 60.335938 71.644531 60.378906 71.890625 60.40625 C 72.136719 60.433594 72.386719 60.445312 72.632812 60.445312 C 72.882812 60.441406 73.128906 60.425781 73.375 60.390625 C 73.625 60.359375 73.867188 60.3125 74.109375 60.25 C 74.347656 60.1875 74.585938 60.113281 74.816406 60.019531 C 75.046875 59.929688 75.273438 59.824219 75.492188 59.707031 C 75.710938 59.589844 75.921875 59.457031 76.125 59.3125 C 79.835938 61.28125 84.269531 61.542969 88.199219 61.757812 C 91.785156 61.957031 95.171875 62.148438 96.042969 63.703125 C 96.574219 64.636719 96.625 66.839844 93.878906 72.03125 C 90.359375 78.660156 86.339844 81.984375 81.949219 81.871094 C 74.898438 81.714844 68.328125 73.097656 64.851562 65.765625 C 60.1875 55.925781 55.648438 56.574219 51.257812 57.203125 C 48.996094 57.523438 46.65625 57.863281 43.953125 56.890625 C 39.675781 55.351562 37.785156 52.453125 36.953125 50.160156 L 37.136719 50.082031 C 37.355469 49.988281 37.546875 49.851562 37.710938 49.679688 C 37.875 49.507812 38.003906 49.3125 38.089844 49.089844 C 38.175781 48.867188 38.21875 48.636719 38.210938 48.398438 C 38.207031 48.160156 38.160156 47.933594 38.0625 47.714844 L 37.246094 45.859375 C 38.476562 44.871094 39.410156 43.652344 40.050781 42.210938 C 41.617188 38.441406 39.59375 28.847656 37.140625 25.878906 C 36.027344 24.550781 34.335938 23.789062 32.199219 23.648438 C 31.917969 23.132812 31.527344 22.726562 31.023438 22.425781 C 30.519531 22.125 29.972656 21.976562 29.386719 21.976562 C 29.121094 21.976562 28.859375 22.007812 28.605469 22.074219 C 28.351562 22.140625 28.105469 22.234375 27.875 22.359375 C 27.640625 22.488281 27.429688 22.640625 27.234375 22.816406 C 27.039062 22.996094 26.871094 23.195312 26.726562 23.417969 C 26.582031 23.636719 26.46875 23.875 26.382812 24.121094 C 26.292969 24.371094 26.242188 24.628906 26.21875 24.890625 C 26.195312 25.15625 26.207031 25.417969 26.25 25.675781 C 26.292969 25.9375 26.367188 26.1875 26.472656 26.429688 C 26.730469 27.023438 27.132812 27.492188 27.679688 27.839844 C 28.222656 28.1875 28.820312 28.355469 29.464844 28.339844 C 30.113281 28.324219 30.699219 28.128906 31.230469 27.757812 C 31.757812 27.386719 32.136719 26.898438 32.371094 26.292969 C 33.5625 26.414062 34.460938 26.808594 35.050781 27.46875 L 35.109375 27.539062 C 35.976562 28.585938 36.933594 31.273438 37.492188 34.222656 C 38.046875 37.167969 38.105469 39.992188 37.613281 41.171875 C 36.71875 43.328125 34.273438 44.773438 33.511719 45.1875 C 32.683594 45.472656 29.972656 46.277344 27.777344 45.46875 C 26.582031 45.03125 24.566406 43.097656 22.761719 40.644531 C 20.957031 38.191406 19.652344 35.699219 19.472656 34.332031 C 19.351562 33.429688 19.671875 32.476562 20.421875 31.476562 C 20.664062 31.570312 20.917969 31.636719 21.175781 31.671875 C 21.4375 31.707031 21.699219 31.710938 21.957031 31.683594 C 22.21875 31.652344 22.472656 31.59375 22.71875 31.5 C 22.964844 31.410156 23.195312 31.289062 23.414062 31.140625 C 23.628906 30.992188 23.824219 30.816406 23.996094 30.621094 C 24.171875 30.421875 24.316406 30.207031 24.4375 29.972656 C 24.558594 29.742188 24.648438 29.496094 24.707031 29.242188 C 24.769531 28.984375 24.796875 28.726562 24.792969 28.464844 C 24.789062 28.199219 24.75 27.941406 24.683594 27.6875 C 24.617188 27.433594 24.519531 27.195312 24.390625 26.964844 C 24.261719 26.734375 24.109375 26.523438 23.929688 26.332031 C 23.75 26.140625 23.550781 25.972656 23.328125 25.832031 C 23.109375 25.691406 22.871094 25.578125 22.625 25.492188 C 22.375 25.410156 22.121094 25.355469 21.859375 25.335938 C 21.597656 25.3125 21.335938 25.324219 21.078125 25.367188 C 20.816406 25.410156 20.570312 25.484375 20.328125 25.589844 C 19.957031 25.753906 19.625 25.976562 19.339844 26.261719 C 19.054688 26.550781 18.828125 26.878906 18.667969 27.25 C 18.507812 27.621094 18.421875 28.011719 18.40625 28.417969 C 18.394531 28.820312 18.453125 29.214844 18.589844 29.597656 C 17.230469 31.253906 16.632812 33.027344 16.859375 34.730469 Z M 16.859375 34.730469 "
        fill-opacity="1" fill-rule="nonzero" />
    <g fill="#f9b041" fill-opacity="1">
        <g transform="translate(111.855778, 39.475476)">
            <g>
                <path
                    d="M 5.28125 -12.296875 L 5.28125 -8.296875 L 12.265625 -8.296875 L 12.265625 -5.5 L 5.28125 -5.5 L 5.28125 0 L 1.796875 0 L 1.796875 -15.09375 L 13.203125 -15.09375 L 13.203125 -12.296875 Z M 5.28125 -12.296875 " />
            </g>
        </g>
    </g>
    <g fill="#f9b041" fill-opacity="1">
        <g transform="translate(125.628353, 39.475476)">
            <g>
                <path
                    d="M 11.734375 -3.234375 L 4.71875 -3.234375 L 3.390625 0 L -0.1875 0 L 6.53125 -15.09375 L 9.984375 -15.09375 L 16.734375 0 L 13.0625 0 Z M 10.625 -5.890625 L 8.234375 -11.671875 L 5.84375 -5.890625 Z M 10.625 -5.890625 " />
            </g>
        </g>
    </g>
    <g fill="#f9b041" fill-opacity="1">
        <g transform="translate(142.138208, 39.475476)">
            <g>
                <path
                    d="M 8.5 0.265625 C 6.34375 0.265625 4.660156 -0.332031 3.453125 -1.53125 C 2.253906 -2.726562 1.65625 -4.429688 1.65625 -6.640625 L 1.65625 -15.09375 L 5.15625 -15.09375 L 5.15625 -6.765625 C 5.15625 -4.066406 6.273438 -2.71875 8.515625 -2.71875 C 9.609375 -2.71875 10.441406 -3.039062 11.015625 -3.6875 C 11.585938 -4.34375 11.875 -5.367188 11.875 -6.765625 L 11.875 -15.09375 L 15.328125 -15.09375 L 15.328125 -6.640625 C 15.328125 -4.429688 14.726562 -2.726562 13.53125 -1.53125 C 12.332031 -0.332031 10.65625 0.265625 8.5 0.265625 Z M 8.5 0.265625 " />
            </g>
        </g>
    </g>
    <g fill="#f9b041" fill-opacity="1">
        <g transform="translate(159.122232, 39.475476)">
            <g>
                <path
                    d="M 11.296875 0 L 7.65625 -5.234375 L 4.078125 0 L 0.0625 0 L 5.65625 -7.671875 L 0.34375 -15.09375 L 4.3125 -15.09375 L 7.78125 -10.203125 L 11.1875 -15.09375 L 14.96875 -15.09375 L 9.703125 -7.8125 L 15.328125 0 Z M 11.296875 0 " />
            </g>
        </g>
    </g>
    <g fill="#f9b041" fill-opacity="1">
        <g transform="translate(174.511312, 39.475476)">
            <g />
        </g>
    </g>
    <g fill="#f9b041" fill-opacity="1">
        <g transform="translate(180.610907, 39.475476)">
            <g>
                <path
                    d="M 9.015625 0.265625 C 7.472656 0.265625 6.078125 -0.0664062 4.828125 -0.734375 C 3.585938 -1.410156 2.613281 -2.335938 1.90625 -3.515625 C 1.195312 -4.703125 0.84375 -6.046875 0.84375 -7.546875 C 0.84375 -9.046875 1.195312 -10.382812 1.90625 -11.5625 C 2.613281 -12.75 3.585938 -13.675781 4.828125 -14.34375 C 6.078125 -15.019531 7.476562 -15.359375 9.03125 -15.359375 C 10.34375 -15.359375 11.523438 -15.125 12.578125 -14.65625 C 13.640625 -14.195312 14.53125 -13.535156 15.25 -12.671875 L 13 -10.609375 C 11.976562 -11.785156 10.710938 -12.375 9.203125 -12.375 C 8.273438 -12.375 7.441406 -12.164062 6.703125 -11.75 C 5.972656 -11.34375 5.398438 -10.773438 4.984375 -10.046875 C 4.578125 -9.316406 4.375 -8.484375 4.375 -7.546875 C 4.375 -6.609375 4.578125 -5.773438 4.984375 -5.046875 C 5.398438 -4.316406 5.972656 -3.742188 6.703125 -3.328125 C 7.441406 -2.921875 8.273438 -2.71875 9.203125 -2.71875 C 10.710938 -2.71875 11.976562 -3.3125 13 -4.5 L 15.25 -2.4375 C 14.53125 -1.5625 13.632812 -0.890625 12.5625 -0.421875 C 11.5 0.0351562 10.316406 0.265625 9.015625 0.265625 Z M 9.015625 0.265625 " />
            </g>
        </g>
    </g>
    <g fill="#f9b041" fill-opacity="1">
        <g transform="translate(196.409502, 39.475476)">
            <g>
                <path
                    d="M 11.734375 -3.234375 L 4.71875 -3.234375 L 3.390625 0 L -0.1875 0 L 6.53125 -15.09375 L 9.984375 -15.09375 L 16.734375 0 L 13.0625 0 Z M 10.625 -5.890625 L 8.234375 -11.671875 L 5.84375 -5.890625 Z M 10.625 -5.890625 " />
            </g>
        </g>
    </g>
    <g fill="#f9b041" fill-opacity="1">
        <g transform="translate(212.919357, 39.475476)">
            <g>
                <path
                    d="M 11.40625 0 L 8.5 -4.203125 L 5.28125 -4.203125 L 5.28125 0 L 1.796875 0 L 1.796875 -15.09375 L 8.328125 -15.09375 C 9.660156 -15.09375 10.816406 -14.867188 11.796875 -14.421875 C 12.785156 -13.972656 13.546875 -13.335938 14.078125 -12.515625 C 14.609375 -11.703125 14.875 -10.734375 14.875 -9.609375 C 14.875 -8.492188 14.601562 -7.53125 14.0625 -6.71875 C 13.53125 -5.90625 12.765625 -5.285156 11.765625 -4.859375 L 15.15625 0 Z M 11.34375 -9.609375 C 11.34375 -10.460938 11.066406 -11.113281 10.515625 -11.5625 C 9.972656 -12.019531 9.175781 -12.25 8.125 -12.25 L 5.28125 -12.25 L 5.28125 -6.984375 L 8.125 -6.984375 C 9.175781 -6.984375 9.972656 -7.210938 10.515625 -7.671875 C 11.066406 -8.128906 11.34375 -8.773438 11.34375 -9.609375 Z M 11.34375 -9.609375 " />
            </g>
        </g>
    </g>
    <g fill="#f9b041" fill-opacity="1">
        <g transform="translate(228.761059, 39.475476)">
            <g>
                <path
                    d="M 13.484375 -2.796875 L 13.484375 0 L 1.796875 0 L 1.796875 -15.09375 L 13.203125 -15.09375 L 13.203125 -12.296875 L 5.265625 -12.296875 L 5.265625 -9.015625 L 12.265625 -9.015625 L 12.265625 -6.296875 L 5.265625 -6.296875 L 5.265625 -2.796875 Z M 13.484375 -2.796875 " />
            </g>
        </g>
    </g>
    <g fill="#fb977d" fill-opacity="1">
        <g transform="translate(170.438704, 54.316476)">
            <g>
                <path
                    d="M 7 -7.015625 L 7 0 L 6.265625 0 L 6.265625 -3.234375 L 1.890625 -3.234375 L 1.890625 0 L 1.140625 0 L 1.140625 -7.015625 L 1.890625 -7.015625 L 1.890625 -3.890625 L 6.265625 -3.890625 L 6.265625 -7.015625 Z M 7 -7.015625 " />
            </g>
        </g>
    </g>
    <g fill="#fb977d" fill-opacity="1">
        <g transform="translate(181.586336, 54.316476)">
            <g>
                <path
                    d="M 4.203125 0.0625 C 3.515625 0.0625 2.882812 -0.09375 2.3125 -0.40625 C 1.75 -0.71875 1.304688 -1.144531 0.984375 -1.6875 C 0.671875 -2.226562 0.515625 -2.832031 0.515625 -3.5 C 0.515625 -4.175781 0.671875 -4.785156 0.984375 -5.328125 C 1.304688 -5.867188 1.75 -6.296875 2.3125 -6.609375 C 2.882812 -6.921875 3.515625 -7.078125 4.203125 -7.078125 C 4.898438 -7.078125 5.523438 -6.921875 6.078125 -6.609375 C 6.640625 -6.304688 7.078125 -5.878906 7.390625 -5.328125 C 7.710938 -4.785156 7.875 -4.175781 7.875 -3.5 C 7.875 -2.832031 7.710938 -2.222656 7.390625 -1.671875 C 7.078125 -1.128906 6.640625 -0.703125 6.078125 -0.390625 C 5.523438 -0.0859375 4.898438 0.0625 4.203125 0.0625 Z M 4.203125 -0.59375 C 4.753906 -0.59375 5.253906 -0.71875 5.703125 -0.96875 C 6.148438 -1.226562 6.5 -1.578125 6.75 -2.015625 C 7.007812 -2.460938 7.140625 -2.957031 7.140625 -3.5 C 7.140625 -4.050781 7.007812 -4.546875 6.75 -4.984375 C 6.5 -5.429688 6.148438 -5.78125 5.703125 -6.03125 C 5.253906 -6.28125 4.753906 -6.40625 4.203125 -6.40625 C 3.648438 -6.40625 3.144531 -6.28125 2.6875 -6.03125 C 2.238281 -5.78125 1.882812 -5.429688 1.625 -4.984375 C 1.375 -4.546875 1.25 -4.050781 1.25 -3.5 C 1.25 -2.957031 1.375 -2.460938 1.625 -2.015625 C 1.882812 -1.578125 2.238281 -1.226562 2.6875 -0.96875 C 3.144531 -0.71875 3.648438 -0.59375 4.203125 -0.59375 Z M 4.203125 -0.59375 " />
            </g>
        </g>
    </g>
    <g fill="#fb977d" fill-opacity="1">
        <g transform="translate(192.994319, 54.316476)">
            <g>
                <path
                    d="M 3.078125 0.0625 C 2.554688 0.0625 2.054688 -0.0195312 1.578125 -0.1875 C 1.097656 -0.351562 0.726562 -0.570312 0.46875 -0.84375 L 0.765625 -1.421875 C 1.015625 -1.171875 1.347656 -0.96875 1.765625 -0.8125 C 2.191406 -0.65625 2.628906 -0.578125 3.078125 -0.578125 C 3.703125 -0.578125 4.171875 -0.691406 4.484375 -0.921875 C 4.796875 -1.148438 4.953125 -1.445312 4.953125 -1.8125 C 4.953125 -2.09375 4.867188 -2.316406 4.703125 -2.484375 C 4.535156 -2.648438 4.328125 -2.773438 4.078125 -2.859375 C 3.828125 -2.953125 3.484375 -3.054688 3.046875 -3.171875 C 2.515625 -3.296875 2.09375 -3.421875 1.78125 -3.546875 C 1.46875 -3.671875 1.195312 -3.859375 0.96875 -4.109375 C 0.75 -4.367188 0.640625 -4.710938 0.640625 -5.140625 C 0.640625 -5.492188 0.734375 -5.816406 0.921875 -6.109375 C 1.109375 -6.398438 1.394531 -6.632812 1.78125 -6.8125 C 2.164062 -6.988281 2.644531 -7.078125 3.21875 -7.078125 C 3.625 -7.078125 4.019531 -7.019531 4.40625 -6.90625 C 4.789062 -6.789062 5.125 -6.640625 5.40625 -6.453125 L 5.140625 -5.859375 C 4.847656 -6.054688 4.535156 -6.203125 4.203125 -6.296875 C 3.867188 -6.390625 3.539062 -6.4375 3.21875 -6.4375 C 2.601562 -6.4375 2.140625 -6.316406 1.828125 -6.078125 C 1.523438 -5.847656 1.375 -5.546875 1.375 -5.171875 C 1.375 -4.890625 1.457031 -4.660156 1.625 -4.484375 C 1.800781 -4.316406 2.015625 -4.1875 2.265625 -4.09375 C 2.523438 -4.007812 2.875 -3.914062 3.3125 -3.8125 C 3.820312 -3.675781 4.234375 -3.546875 4.546875 -3.421875 C 4.867188 -3.304688 5.140625 -3.125 5.359375 -2.875 C 5.578125 -2.625 5.6875 -2.285156 5.6875 -1.859375 C 5.6875 -1.503906 5.59375 -1.179688 5.40625 -0.890625 C 5.21875 -0.597656 4.925781 -0.363281 4.53125 -0.1875 C 4.132812 -0.0195312 3.648438 0.0625 3.078125 0.0625 Z M 3.078125 0.0625 " />
            </g>
        </g>
    </g>
    <g fill="#fb977d" fill-opacity="1">
        <g transform="translate(202.159294, 54.316476)">
            <g>
                <path
                    d="M 3.765625 -7.015625 C 4.660156 -7.015625 5.359375 -6.800781 5.859375 -6.375 C 6.367188 -5.945312 6.625 -5.359375 6.625 -4.609375 C 6.625 -3.859375 6.367188 -3.269531 5.859375 -2.84375 C 5.359375 -2.425781 4.660156 -2.21875 3.765625 -2.21875 L 1.890625 -2.21875 L 1.890625 0 L 1.140625 0 L 1.140625 -7.015625 Z M 3.75 -2.859375 C 4.4375 -2.859375 4.960938 -3.007812 5.328125 -3.3125 C 5.703125 -3.625 5.890625 -4.054688 5.890625 -4.609375 C 5.890625 -5.171875 5.703125 -5.601562 5.328125 -5.90625 C 4.960938 -6.21875 4.4375 -6.375 3.75 -6.375 L 1.890625 -6.375 L 1.890625 -2.859375 Z M 3.75 -2.859375 " />
            </g>
        </g>
    </g>
    <g fill="#fb977d" fill-opacity="1">
        <g transform="translate(212.355646, 54.316476)">
            <g>
                <path d="M 1.140625 -7.015625 L 1.890625 -7.015625 L 1.890625 0 L 1.140625 0 Z M 1.140625 -7.015625 " />
            </g>
        </g>
    </g>
    <g fill="#fb977d" fill-opacity="1">
        <g transform="translate(218.386413, 54.316476)">
            <g>
                <path
                    d="M 2.5 -6.375 L 0.046875 -6.375 L 0.046875 -7.015625 L 5.703125 -7.015625 L 5.703125 -6.375 L 3.25 -6.375 L 3.25 0 L 2.5 0 Z M 2.5 -6.375 " />
            </g>
        </g>
    </g>
    <g fill="#fb977d" fill-opacity="1">
        <g transform="translate(227.140836, 54.316476)">
            <g>
                <path
                    d="M 5.53125 -1.875 L 1.625 -1.875 L 0.796875 0 L 0.015625 0 L 3.21875 -7.015625 L 3.953125 -7.015625 L 7.15625 0 L 6.375 0 Z M 5.265625 -2.46875 L 3.578125 -6.234375 L 1.90625 -2.46875 Z M 5.265625 -2.46875 " />
            </g>
        </g>
    </g>
    <g fill="#fb977d" fill-opacity="1">
        <g transform="translate(237.327179, 54.316476)">
            <g>
                <path
                    d="M 1.140625 -7.015625 L 1.890625 -7.015625 L 1.890625 -0.640625 L 5.8125 -0.640625 L 5.8125 0 L 1.140625 0 Z M 1.140625 -7.015625 " />
            </g>
        </g>
    </g>
</svg>