<svg xmlns="http://www.w3.org/2000/svg" xmlns:xlink="http://www.w3.org/1999/xlink" contentStyleType="text/css" height="1558px" preserveAspectRatio="none" style="width:1266px;height:1558px;background:#FFFFFF;" version="1.1" viewBox="0 0 1266 1558" width="1266px" zoomAndPan="magnify"><defs/><g><rect fill="#E8D0A9" height="1546.5703" rx="10" ry="10" style="stroke:#181818;stroke-width:0.5;" width="431.8926" x="26" y="6"/><text fill="#000000" font-family="Arial" font-size="13" font-weight="bold" lengthAdjust="spacing" textLength="60.7534" x="209.3066" y="18.0669">Hospital</text><rect fill="#ACD1E9" height="1546.5703" rx="10" ry="10" style="stroke:#181818;stroke-width:0.5;" width="459.5957" x="520.936" y="6"/><text fill="#000000" font-family="Arial" font-size="13" font-weight="bold" lengthAdjust="spacing" textLength="40.6631" x="728.1394" y="18.0669">ORCA</text><rect fill="#F0A1A1" height="1546.5703" rx="10" ry="10" style="stroke:#181818;stroke-width:0.5;" width="94.1602" x="1040.0337" y="6"/><text fill="#000000" font-family="Arial" font-size="13" font-weight="bold" lengthAdjust="spacing" textLength="39.8696" x="1064.916" y="18.0669">Clinic</text><rect fill="#FFFFFF" height="476.2578" style="stroke:#181818;stroke-width:1;" width="10" x="72.9736" y="111.4297"/><rect fill="#FFFFFF" height="1234.1797" style="stroke:#181818;stroke-width:1;" width="10" x="914.5781" y="230.0938"/><rect fill="#FFFFFF" height="563.2578" style="stroke:#181818;stroke-width:1;" width="10" x="1082.1138" y="901.0156"/><rect fill="none" height="730.3203" rx="10" ry="10" style="stroke:#000000;stroke-width:1.5;" width="1077.1138" x="10" y="118.4297"/><rect fill="none" height="408.8594" rx="10" ry="10" style="stroke:#000000;stroke-width:1.5;" width="990.1484" x="20" y="432.8906"/><rect fill="none" height="593.5234" rx="10" ry="10" style="stroke:#000000;stroke-width:1.5;" width="953.7588" x="306.7432" y="862.75"/><line style="stroke:#181818;stroke-width:0.5;stroke-dasharray:5.0,5.0;" x1="77" x2="77" y1="101.4297" y2="1473.2734"/><line style="stroke:#181818;stroke-width:0.5;stroke-dasharray:5.0,5.0;" x1="219.7363" x2="219.7363" y1="101.4297" y2="1473.2734"/><line style="stroke:#181818;stroke-width:0.5;stroke-dasharray:5.0,5.0;" x1="384.7432" x2="384.7432" y1="101.4297" y2="1473.2734"/><line style="stroke:#181818;stroke-width:0.5;stroke-dasharray:5.0,5.0;" x1="606.936" x2="606.936" y1="101.4297" y2="1473.2734"/><line style="stroke:#181818;stroke-width:0.5;stroke-dasharray:5.0,5.0;" x1="918.6245" x2="918.6245" y1="101.4297" y2="1473.2734"/><line style="stroke:#181818;stroke-width:0.5;stroke-dasharray:5.0,5.0;" x1="1087.0337" x2="1087.0337" y1="101.4297" y2="1473.2734"/><text fill="#000000" font-family="Arial" font-size="14" lengthAdjust="spacing" textLength="89.9473" x="30" y="98.1279">Practitioner1</text><ellipse cx="77.9736" cy="33.6328" fill="#E2E2F0" rx="8" ry="8" style="stroke:#181818;stroke-width:0.5;"/><path d="M77.9736,41.6328 L77.9736,68.6328 M64.9736,49.6328 L90.9736,49.6328 M77.9736,68.6328 L64.9736,83.6328 M77.9736,68.6328 L90.9736,83.6328 " fill="none" style="stroke:#181818;stroke-width:0.5;"/><text fill="#000000" font-family="Arial" font-size="14" lengthAdjust="spacing" textLength="89.9473" x="30" y="1485.2686">Practitioner1</text><ellipse cx="77.9736" cy="1497.0703" fill="#E2E2F0" rx="8" ry="8" style="stroke:#181818;stroke-width:0.5;"/><path d="M77.9736,1505.0703 L77.9736,1532.0703 M64.9736,1513.0703 L90.9736,1513.0703 M77.9736,1532.0703 L64.9736,1547.0703 M77.9736,1532.0703 L90.9736,1547.0703 " fill="none" style="stroke:#181818;stroke-width:0.5;"/><rect fill="#D3D3D3" height="30.2969" rx="10" ry="10" style="stroke:#181818;stroke-width:0.5;" width="165.3271" x="137.7363" y="70.1328"/><text fill="#000000" font-family="Arial" font-size="14" lengthAdjust="spacing" textLength="151.3271" x="144.7363" y="90.1279">Care Plan Contributor</text><rect fill="#D3D3D3" height="30.2969" rx="10" ry="10" style="stroke:#181818;stroke-width:0.5;" width="165.3271" x="137.7363" y="1472.2734"/><text fill="#000000" font-family="Arial" font-size="14" lengthAdjust="spacing" textLength="151.3271" x="144.7363" y="1492.2686">Care Plan Contributor</text><rect fill="#808080" height="30.2969" rx="10" ry="10" style="stroke:#181818;stroke-width:0.5;" width="137.1494" x="316.7432" y="70.1328"/><text fill="#FFFFFF" font-family="Arial" font-size="14" lengthAdjust="spacing" textLength="123.1494" x="323.7432" y="90.1279">Care Plan Service</text><rect fill="#808080" height="30.2969" rx="10" ry="10" style="stroke:#181818;stroke-width:0.5;" width="137.1494" x="316.7432" y="1472.2734"/><text fill="#FFFFFF" font-family="Arial" font-size="14" lengthAdjust="spacing" textLength="123.1494" x="323.7432" y="1492.2686">Care Plan Service</text><rect fill="#D3D3D3" height="30.2969" rx="10" ry="10" style="stroke:#181818;stroke-width:0.5;" width="165.3271" x="524.936" y="70.1328"/><text fill="#000000" font-family="Arial" font-size="14" lengthAdjust="spacing" textLength="151.3271" x="531.936" y="90.1279">Care Plan Contributor</text><rect fill="#D3D3D3" height="30.2969" rx="10" ry="10" style="stroke:#181818;stroke-width:0.5;" width="165.3271" x="524.936" y="1472.2734"/><text fill="#000000" font-family="Arial" font-size="14" lengthAdjust="spacing" textLength="151.3271" x="531.936" y="1492.2686">Care Plan Contributor</text><rect fill="#E2E2F0" height="30.2969" rx="10" ry="10" style="stroke:#181818;stroke-width:0.5;" width="113.9072" x="862.6245" y="70.1328"/><text fill="#000000" font-family="Arial" font-size="14" lengthAdjust="spacing" textLength="99.9072" x="869.6245" y="90.1279">Task manager</text><rect fill="#E2E2F0" height="30.2969" rx="10" ry="10" style="stroke:#181818;stroke-width:0.5;" width="113.9072" x="862.6245" y="1472.2734"/><text fill="#000000" font-family="Arial" font-size="14" lengthAdjust="spacing" textLength="99.9072" x="869.6245" y="1492.2686">Task manager</text><rect fill="#E2E2F0" height="30.2969" rx="10" ry="10" style="stroke:#181818;stroke-width:0.5;" width="86.1602" x="1044.0337" y="70.1328"/><text fill="#000000" font-family="Arial" font-size="14" lengthAdjust="spacing" textLength="72.1602" x="1051.0337" y="90.1279">Care Profs</text><rect fill="#E2E2F0" height="30.2969" rx="10" ry="10" style="stroke:#181818;stroke-width:0.5;" width="86.1602" x="1044.0337" y="1472.2734"/><text fill="#000000" font-family="Arial" font-size="14" lengthAdjust="spacing" textLength="72.1602" x="1051.0337" y="1492.2686">Care Profs</text><rect fill="#FFFFFF" height="476.2578" style="stroke:#181818;stroke-width:1;" width="10" x="72.9736" y="111.4297"/><rect fill="#FFFFFF" height="1234.1797" style="stroke:#181818;stroke-width:1;" width="10" x="914.5781" y="230.0938"/><rect fill="#FFFFFF" height="563.2578" style="stroke:#181818;stroke-width:1;" width="10" x="1082.1138" y="901.0156"/><path d="M20,118.4297 L189.9321,118.4297 L189.9321,125.5625 L179.9321,135.5625 L10,135.5625 L10,128.4297 A10,10 0 0 1 20,118.4297 " fill="#EEEEEE" style="stroke:#000000;stroke-width:1.5;"/><rect fill="none" height="730.3203" rx="10" ry="10" style="stroke:#000000;stroke-width:1.5;" width="1077.1138" x="10" y="118.4297"/><text fill="#000000" font-family="Arial" font-size="13" font-weight="bold" lengthAdjust="spacing" textLength="134.9321" x="25" y="131.4966">Prelude Simplified</text><polygon fill="#181818" points="208.3999,167.8281,218.3999,171.8281,208.3999,175.8281,212.3999,171.8281" style="stroke:#181818;stroke-width:1;"/><line style="stroke:#181818;stroke-width:1;" x1="82.9736" x2="214.3999" y1="171.8281" y2="171.8281"/><text fill="#000000" font-family="Arial" font-size="13" lengthAdjust="spacing" textLength="89.2798" x="89.9736" y="151.6294">Start Request</text><text fill="#000000" font-family="Arial" font-size="13" lengthAdjust="spacing" textLength="48.1851" x="94.106" y="166.7622">referral</text><polygon fill="#181818" points="373.3179,196.9609,383.3179,200.9609,373.3179,204.9609,377.3179,200.9609" style="stroke:#181818;stroke-width:1;"/><line style="stroke:#181818;stroke-width:1;" x1="220.3999" x2="379.3179" y1="200.9609" y2="200.9609"/><text fill="#000000" font-family="Arial" font-size="13" lengthAdjust="spacing" textLength="118.5171" x="227.3999" y="195.895">create Task[main]</text><polygon fill="#181818" points="595.5996,226.0938,605.5996,230.0938,595.5996,234.0938,599.5996,230.0938" style="stroke:#181818;stroke-width:1;"/><line style="stroke:#181818;stroke-width:1;" x1="385.3179" x2="601.5996" y1="230.0938" y2="230.0938"/><text fill="#000000" font-family="Arial" font-size="13" lengthAdjust="spacing" textLength="114.1372" x="392.3179" y="225.0278">notify Task[main]</text><polygon fill="#181818" points="902.5781,255.2266,912.5781,259.2266,902.5781,263.2266,906.5781,259.2266" style="stroke:#181818;stroke-width:1;"/><line style="stroke:#181818;stroke-width:1;" x1="607.5996" x2="908.5781" y1="259.2266" y2="259.2266"/><text fill="#000000" font-family="Arial" font-size="13" lengthAdjust="spacing" textLength="37.1719" x="614.5996" y="254.1606">notify</text><polygon fill="#181818" points="618.5996,284.3594,608.5996,288.3594,618.5996,292.3594,614.5996,288.3594" style="stroke:#181818;stroke-width:1;"/><line style="stroke:#181818;stroke-width:1;" x1="612.5996" x2="913.5781" y1="288.3594" y2="288.3594"/><text fill="#000000" font-family="Arial" font-size="13" lengthAdjust="spacing" textLength="110.0239" x="624.5996" y="283.2935">fetch Task[main]</text><polygon fill="#181818" points="396.3179,313.4922,386.3179,317.4922,396.3179,321.4922,392.3179,317.4922" style="stroke:#181818;stroke-width:1;"/><line style="stroke:#181818;stroke-width:1;" x1="390.3179" x2="606.5996" y1="317.4922" y2="317.4922"/><text fill="#000000" font-family="Arial" font-size="13" lengthAdjust="spacing" textLength="110.0239" x="402.3179" y="312.4263">fetch Task[main]</text><polygon fill="#181818" points="595.5996,342.625,605.5996,346.625,595.5996,350.625,599.5996,346.625" style="stroke:#181818;stroke-width:1;"/><line style="stroke:#181818;stroke-width:1;stroke-dasharray:2.0,2.0;" x1="385.3179" x2="601.5996" y1="346.625" y2="346.625"/><text fill="#000000" font-family="Arial" font-size="13" lengthAdjust="spacing" textLength="72.833" x="392.3179" y="341.5591">Task[main]</text><polygon fill="#181818" points="902.5781,371.7578,912.5781,375.7578,902.5781,379.7578,906.5781,375.7578" style="stroke:#181818;stroke-width:1;"/><line style="stroke:#181818;stroke-width:1;stroke-dasharray:2.0,2.0;" x1="607.5996" x2="908.5781" y1="375.7578" y2="375.7578"/><text fill="#000000" font-family="Arial" font-size="13" lengthAdjust="spacing" textLength="72.833" x="614.5996" y="370.6919">Task[main]</text><line style="stroke:#181818;stroke-width:1;" x1="924.5781" x2="966.5781" y1="404.8906" y2="404.8906"/><line style="stroke:#181818;stroke-width:1;" x1="966.5781" x2="966.5781" y1="404.8906" y2="417.8906"/><line style="stroke:#181818;stroke-width:1;" x1="925.5781" x2="966.5781" y1="417.8906" y2="417.8906"/><polygon fill="#181818" points="935.5781,413.8906,925.5781,417.8906,935.5781,421.8906,931.5781,417.8906" style="stroke:#181818;stroke-width:1;"/><text fill="#000000" font-family="Arial" font-size="13" lengthAdjust="spacing" textLength="133.5356" x="931.5781" y="399.8247">evaluate Task[main]</text><path d="M30,432.8906 L96.624,432.8906 L96.624,440.0234 L86.624,450.0234 L20,450.0234 L20,442.8906 A10,10 0 0 1 30,432.8906 " fill="#EEEEEE" style="stroke:#000000;stroke-width:1.5;"/><rect fill="none" height="408.8594" rx="10" ry="10" style="stroke:#000000;stroke-width:1.5;" width="990.1484" x="20" y="432.8906"/><text fill="#000000" font-family="Arial" font-size="13" font-weight="bold" lengthAdjust="spacing" textLength="31.624" x="35" y="445.9575">loop</text><text fill="#000000" font-family="Arial" font-size="11" font-weight="bold" lengthAdjust="spacing" textLength="95.7827" x="111.624" y="445.1011">[until satisfied]</text><polygon fill="#181818" points="396.3179,467.1563,386.3179,471.1563,396.3179,475.1563,392.3179,471.1563" style="stroke:#181818;stroke-width:1;"/><line style="stroke:#181818;stroke-width:1;" x1="390.3179" x2="606.5996" y1="471.1563" y2="471.1563"/><text fill="#000000" font-family="Arial" font-size="13" lengthAdjust="spacing" textLength="198.2817" x="402.3179" y="466.0903">create subtask / questionnaire</text><polygon fill="#181818" points="231.3999,496.2891,221.3999,500.2891,231.3999,504.2891,227.3999,500.2891" style="stroke:#181818;stroke-width:1;"/><line style="stroke:#181818;stroke-width:1;" x1="225.3999" x2="384.3179" y1="500.2891" y2="500.2891"/><text fill="#000000" font-family="Arial" font-size="13" lengthAdjust="spacing" textLength="91.9331" x="237.3999" y="495.2231">notify subtask</text><polygon fill="#181818" points="373.3179,525.4219,383.3179,529.4219,373.3179,533.4219,377.3179,529.4219" style="stroke:#181818;stroke-width:1;"/><line style="stroke:#181818;stroke-width:1;" x1="220.3999" x2="379.3179" y1="529.4219" y2="529.4219"/><text fill="#000000" font-family="Arial" font-size="13" lengthAdjust="spacing" textLength="87.8198" x="227.3999" y="524.356">fetch subtask</text><polygon fill="#181818" points="231.3999,554.5547,221.3999,558.5547,231.3999,562.5547,227.3999,558.5547" style="stroke:#181818;stroke-width:1;"/><line style="stroke:#181818;stroke-width:1;stroke-dasharray:2.0,2.0;" x1="225.3999" x2="384.3179" y1="558.5547" y2="558.5547"/><text fill="#000000" font-family="Arial" font-size="13" lengthAdjust="spacing" textLength="90.981" x="237.3999" y="553.4888">Task[subtask]</text><polygon fill="#181818" points="88.9736,583.6875,78.9736,587.6875,88.9736,591.6875,84.9736,587.6875" style="stroke:#181818;stroke-width:1;"/><polygon fill="#181818" points="208.3999,583.6875,218.3999,587.6875,208.3999,591.6875,212.3999,587.6875" style="stroke:#181818;stroke-width:1;"/><line style="stroke:#181818;stroke-width:1;" x1="82.9736" x2="214.3999" y1="587.6875" y2="587.6875"/><text fill="#000000" font-family="Arial" font-size="13" lengthAdjust="spacing" textLength="113.4263" x="94.9736" y="582.6216">Fill Task[subtask]</text><polygon fill="#181818" points="373.3179,612.8203,383.3179,616.8203,373.3179,620.8203,377.3179,616.8203" style="stroke:#181818;stroke-width:1;"/><line style="stroke:#181818;stroke-width:1;" x1="220.3999" x2="379.3179" y1="616.8203" y2="616.8203"/><text fill="#000000" font-family="Arial" font-size="13" lengthAdjust="spacing" textLength="140.918" x="227.3999" y="611.7544">update Task[subtask]</text><polygon fill="#181818" points="595.5996,641.9531,605.5996,645.9531,595.5996,649.9531,599.5996,645.9531" style="stroke:#181818;stroke-width:1;"/><line style="stroke:#181818;stroke-width:1;" x1="385.3179" x2="601.5996" y1="645.9531" y2="645.9531"/><text fill="#000000" font-family="Arial" font-size="13" lengthAdjust="spacing" textLength="37.1719" x="392.3179" y="640.8872">notify</text><polygon fill="#181818" points="902.5781,671.0859,912.5781,675.0859,902.5781,679.0859,906.5781,675.0859" style="stroke:#181818;stroke-width:1;"/><line style="stroke:#181818;stroke-width:1;" x1="607.5996" x2="908.5781" y1="675.0859" y2="675.0859"/><text fill="#000000" font-family="Arial" font-size="13" lengthAdjust="spacing" textLength="37.1719" x="614.5996" y="670.02">notify</text><polygon fill="#181818" points="618.5996,700.2188,608.5996,704.2188,618.5996,708.2188,614.5996,704.2188" style="stroke:#181818;stroke-width:1;"/><line style="stroke:#181818;stroke-width:1;" x1="612.5996" x2="913.5781" y1="704.2188" y2="704.2188"/><text fill="#000000" font-family="Arial" font-size="13" lengthAdjust="spacing" textLength="128.1719" x="624.5996" y="699.1528">fetch Task[subtask]</text><polygon fill="#181818" points="396.3179,729.3516,386.3179,733.3516,396.3179,737.3516,392.3179,733.3516" style="stroke:#181818;stroke-width:1;"/><line style="stroke:#181818;stroke-width:1;" x1="390.3179" x2="606.5996" y1="733.3516" y2="733.3516"/><text fill="#000000" font-family="Arial" font-size="13" lengthAdjust="spacing" textLength="128.1719" x="402.3179" y="728.2856">fetch Task[subtask]</text><polygon fill="#181818" points="595.5996,758.4844,605.5996,762.4844,595.5996,766.4844,599.5996,762.4844" style="stroke:#181818;stroke-width:1;"/><line style="stroke:#181818;stroke-width:1;" x1="385.3179" x2="601.5996" y1="762.4844" y2="762.4844"/><text fill="#000000" font-family="Arial" font-size="13" lengthAdjust="spacing" textLength="90.981" x="392.3179" y="757.4185">Task[subtask]</text><polygon fill="#181818" points="902.5781,787.6172,912.5781,791.6172,902.5781,795.6172,906.5781,791.6172" style="stroke:#181818;stroke-width:1;"/><line style="stroke:#181818;stroke-width:1;" x1="607.5996" x2="908.5781" y1="791.6172" y2="791.6172"/><text fill="#000000" font-family="Arial" font-size="13" lengthAdjust="spacing" textLength="90.981" x="614.5996" y="786.5513">Task[subtask]</text><line style="stroke:#181818;stroke-width:1;" x1="924.5781" x2="966.5781" y1="820.75" y2="820.75"/><line style="stroke:#181818;stroke-width:1;" x1="966.5781" x2="966.5781" y1="820.75" y2="833.75"/><line style="stroke:#181818;stroke-width:1;" x1="925.5781" x2="966.5781" y1="833.75" y2="833.75"/><polygon fill="#181818" points="935.5781,829.75,925.5781,833.75,935.5781,837.75,931.5781,833.75" style="stroke:#181818;stroke-width:1;"/><text fill="#000000" font-family="Arial" font-size="13" lengthAdjust="spacing" textLength="56.5703" x="931.5781" y="815.6841">evaluate</text><path d="M316.7432,862.75 L480.4419,862.75 L480.4419,869.8828 L470.4419,879.8828 L306.7432,879.8828 L306.7432,872.75 A10,10 0 0 1 316.7432,862.75 " fill="#EEEEEE" style="stroke:#000000;stroke-width:1.5;"/><rect fill="none" height="593.5234" rx="10" ry="10" style="stroke:#000000;stroke-width:1.5;" width="953.7588" x="306.7432" y="862.75"/><text fill="#000000" font-family="Arial" font-size="13" font-weight="bold" lengthAdjust="spacing" textLength="128.6987" x="321.7432" y="875.8169">Clinic notification</text><polygon fill="#181818" points="618.5996,897.0156,608.5996,901.0156,618.5996,905.0156,614.5996,901.0156" style="stroke:#181818;stroke-width:1;"/><line style="stroke:#181818;stroke-width:1;" x1="612.5996" x2="913.5781" y1="901.0156" y2="901.0156"/><text fill="#000000" font-family="Arial" font-size="13" lengthAdjust="spacing" textLength="122.77" x="624.5996" y="895.9497">update Task[main]</text><line style="stroke:#181818;stroke-width:1;" x1="924.5781" x2="966.5781" y1="930.1484" y2="930.1484"/><line style="stroke:#181818;stroke-width:1;" x1="966.5781" x2="966.5781" y1="930.1484" y2="943.1484"/><line style="stroke:#181818;stroke-width:1;" x1="925.5781" x2="966.5781" y1="943.1484" y2="943.1484"/><polygon fill="#181818" points="935.5781,939.1484,925.5781,943.1484,935.5781,947.1484,931.5781,943.1484" style="stroke:#181818;stroke-width:1;"/><text fill="#000000" font-family="Arial" font-size="13" lengthAdjust="spacing" textLength="124.3379" x="931.5781" y="925.0825">unpack Task[main]</text><polygon fill="#181818" points="618.5996,968.2813,608.5996,972.2813,618.5996,976.2813,614.5996,972.2813" style="stroke:#181818;stroke-width:1;"/><line style="stroke:#181818;stroke-width:1;" x1="612.5996" x2="913.5781" y1="972.2813" y2="972.2813"/><text fill="#000000" font-family="Arial" font-size="13" lengthAdjust="spacing" textLength="246.4604" x="624.5996" y="967.2153">fetch ServiceRequest from Task.focus</text><polygon fill="#181818" points="396.3179,997.4141,386.3179,1001.4141,396.3179,1005.4141,392.3179,1001.4141" style="stroke:#181818;stroke-width:1;"/><line style="stroke:#181818;stroke-width:1;stroke-dasharray:2.0,2.0;" x1="390.3179" x2="606.5996" y1="1001.4141" y2="1001.4141"/><text fill="#000000" font-family="Arial" font-size="13" lengthAdjust="spacing" textLength="138.6265" x="402.3179" y="996.3481">fetch ServiceRequest</text><polygon fill="#181818" points="595.5996,1026.5469,605.5996,1030.5469,595.5996,1034.5469,599.5996,1030.5469" style="stroke:#181818;stroke-width:1;"/><line style="stroke:#181818;stroke-width:1;stroke-dasharray:2.0,2.0;" x1="385.3179" x2="601.5996" y1="1030.5469" y2="1030.5469"/><text fill="#000000" font-family="Arial" font-size="13" lengthAdjust="spacing" textLength="150.8267" x="392.3179" y="1025.481">ServiceRequest Bundle</text><polygon fill="#181818" points="902.5781,1055.6797,912.5781,1059.6797,902.5781,1063.6797,906.5781,1059.6797" style="stroke:#181818;stroke-width:1;"/><line style="stroke:#181818;stroke-width:1;stroke-dasharray:2.0,2.0;" x1="607.5996" x2="908.5781" y1="1059.6797" y2="1059.6797"/><text fill="#000000" font-family="Arial" font-size="13" lengthAdjust="spacing" textLength="150.8267" x="614.5996" y="1054.6138">ServiceRequest Bundle</text><polygon fill="#181818" points="618.5996,1084.8125,608.5996,1088.8125,618.5996,1092.8125,614.5996,1088.8125" style="stroke:#181818;stroke-width:1;"/><line style="stroke:#181818;stroke-width:1;" x1="612.5996" x2="913.5781" y1="1088.8125" y2="1088.8125"/><text fill="#000000" font-family="Arial" font-size="13" lengthAdjust="spacing" textLength="282.9785" x="624.5996" y="1083.7466">fetch Condition from Task.reasonReference</text><polygon fill="#181818" points="396.3179,1113.9453,386.3179,1117.9453,396.3179,1121.9453,392.3179,1117.9453" style="stroke:#181818;stroke-width:1;"/><line style="stroke:#181818;stroke-width:1;stroke-dasharray:2.0,2.0;" x1="390.3179" x2="606.5996" y1="1117.9453" y2="1117.9453"/><text fill="#000000" font-family="Arial" font-size="13" lengthAdjust="spacing" textLength="99.2266" x="402.3179" y="1112.8794">fetch Condition</text><polygon fill="#181818" points="595.5996,1143.0781,605.5996,1147.0781,595.5996,1151.0781,599.5996,1147.0781" style="stroke:#181818;stroke-width:1;"/><line style="stroke:#181818;stroke-width:1;stroke-dasharray:2.0,2.0;" x1="385.3179" x2="601.5996" y1="1147.0781" y2="1147.0781"/><text fill="#000000" font-family="Arial" font-size="13" lengthAdjust="spacing" textLength="111.4268" x="392.3179" y="1142.0122">Condition Bundle</text><polygon fill="#181818" points="902.5781,1172.2109,912.5781,1176.2109,902.5781,1180.2109,906.5781,1176.2109" style="stroke:#181818;stroke-width:1;"/><line style="stroke:#181818;stroke-width:1;stroke-dasharray:2.0,2.0;" x1="607.5996" x2="908.5781" y1="1176.2109" y2="1176.2109"/><text fill="#000000" font-family="Arial" font-size="13" lengthAdjust="spacing" textLength="111.4268" x="614.5996" y="1171.145">Condition Bundle</text><polygon fill="#181818" points="618.5996,1201.3438,608.5996,1205.3438,618.5996,1209.3438,614.5996,1205.3438" style="stroke:#181818;stroke-width:1;"/><line style="stroke:#181818;stroke-width:1;" x1="612.5996" x2="913.5781" y1="1205.3438" y2="1205.3438"/><text fill="#000000" font-family="Arial" font-size="13" lengthAdjust="spacing" textLength="110.0239" x="624.5996" y="1200.2778">fetch Task[main]</text><polygon fill="#181818" points="396.3179,1230.4766,386.3179,1234.4766,396.3179,1238.4766,392.3179,1234.4766" style="stroke:#181818;stroke-width:1;"/><line style="stroke:#181818;stroke-width:1;" x1="390.3179" x2="606.5996" y1="1234.4766" y2="1234.4766"/><text fill="#000000" font-family="Arial" font-size="13" lengthAdjust="spacing" textLength="110.0239" x="402.3179" y="1229.4106">fetch Task[main]</text><polygon fill="#181818" points="595.5996,1259.6094,605.5996,1263.6094,595.5996,1267.6094,599.5996,1263.6094" style="stroke:#181818;stroke-width:1;"/><line style="stroke:#181818;stroke-width:1;stroke-dasharray:2.0,2.0;" x1="385.3179" x2="601.5996" y1="1263.6094" y2="1263.6094"/><text fill="#000000" font-family="Arial" font-size="13" lengthAdjust="spacing" textLength="72.833" x="392.3179" y="1258.5435">Task[main]</text><polygon fill="#181818" points="902.5781,1288.7422,912.5781,1292.7422,902.5781,1296.7422,906.5781,1292.7422" style="stroke:#181818;stroke-width:1;"/><line style="stroke:#181818;stroke-width:1;stroke-dasharray:2.0,2.0;" x1="607.5996" x2="908.5781" y1="1292.7422" y2="1292.7422"/><text fill="#000000" font-family="Arial" font-size="13" lengthAdjust="spacing" textLength="72.833" x="614.5996" y="1287.6763">Task[main]</text><line style="stroke:#181818;stroke-width:1;" x1="924.5781" x2="966.5781" y1="1321.875" y2="1321.875"/><line style="stroke:#181818;stroke-width:1;" x1="966.5781" x2="966.5781" y1="1321.875" y2="1334.875"/><line style="stroke:#181818;stroke-width:1;" x1="925.5781" x2="966.5781" y1="1334.875" y2="1334.875"/><polygon fill="#181818" points="935.5781,1330.875,925.5781,1334.875,935.5781,1338.875,931.5781,1334.875" style="stroke:#181818;stroke-width:1;"/><text fill="#000000" font-family="Arial" font-size="13" lengthAdjust="spacing" textLength="90.9429" x="931.5781" y="1316.8091">create Bundle</text><polygon fill="#181818" points="1070.1138,1360.0078,1080.1138,1364.0078,1070.1138,1368.0078,1074.1138,1364.0078" style="stroke:#181818;stroke-width:1;"/><line style="stroke:#181818;stroke-width:1;" x1="924.5781" x2="1076.1138" y1="1364.0078" y2="1364.0078"/><text fill="#000000" font-family="Arial" font-size="13" lengthAdjust="spacing" textLength="129.1875" x="931.5781" y="1358.9419">notify Bundle[main]</text><line style="stroke:#181818;stroke-width:1;" x1="1092.1138" x2="1134.1138" y1="1393.1406" y2="1393.1406"/><line style="stroke:#181818;stroke-width:1;" x1="1134.1138" x2="1134.1138" y1="1393.1406" y2="1406.1406"/><line style="stroke:#181818;stroke-width:1;" x1="1093.1138" x2="1134.1138" y1="1406.1406" y2="1406.1406"/><polygon fill="#181818" points="1103.1138,1402.1406,1093.1138,1406.1406,1103.1138,1410.1406,1099.1138,1406.1406" style="stroke:#181818;stroke-width:1;"/><text fill="#000000" font-family="Arial" font-size="13" lengthAdjust="spacing" textLength="139.3882" x="1099.1138" y="1388.0747">unpack Bundle[main]</text><line style="stroke:#181818;stroke-width:1;" x1="1092.1138" x2="1134.1138" y1="1435.2734" y2="1435.2734"/><line style="stroke:#181818;stroke-width:1;" x1="1134.1138" x2="1134.1138" y1="1435.2734" y2="1448.2734"/><line style="stroke:#181818;stroke-width:1;" x1="1093.1138" x2="1134.1138" y1="1448.2734" y2="1448.2734"/><polygon fill="#181818" points="1103.1138,1444.2734,1093.1138,1448.2734,1103.1138,1452.2734,1099.1138,1448.2734" style="stroke:#181818;stroke-width:1;"/><text fill="#000000" font-family="Arial" font-size="13" lengthAdjust="spacing" textLength="84.0938" x="1099.1138" y="1430.2075">Create ticket</text><!--SRC=[pLLDRzim3BtxLn3DULkSqnfq1Je3tGx35YIxRJqmCfq8KIHFahFrtq-I5N-xw6xB9PP9FZu-ah8vSLcYnZDeLScSAIr9msgPcCQGKu6Li8zAsgzu9dZG74MIxDKV-AnCoIqAMD3xV8ct2RWVCgiqRBJxvvOhXvS2clwBuEZWBMUyH6dX9aDDi14e8NE9DDzN3kN61sQRB8N55tuusayQdyUXTuMB0AQ4qXz-7xcb-nPiH_h26KMW7Im21CaS7F-wY6_Rx04MoFAKRl-Hr-f5Nj_HdE2C4WzKHyJdVlfCSCaPB8ebfZWhZ5Q52HZC7Kj_Qb4EhdMbSo5HvGGxVYu5BpZbYHVyWfO6slTRy-Q-LdWDE-lomfP-LMJiJmcQ2jBQzJhOWzzk3KoJX_J5_JWZbq-9rxL6MQr1AikBvwwvON4jFmZd0kBv6fF4SujLa6N7VgOwCX2Pi3eUJV0eh9knO-naRSnqGL4DgXHAbL19omKOjDm4XNstUgIYEgRQMz_zTn34T59Bv9gY_rMkj94h-b_nqa6HVNDJPHeBYUQdDlpEEVJQl8P7BiI4UqupKpAYKfLv8yaWuwZ_FM66VVQsZkhZPW_hcUpvF8LvZ7x_UoulZK5ODT__y13MBIvTNDvG66VejHkFSLUumKgqspoLlt8tC3lD36jNjNZBnTM5GgjpY7fRA5QPTlux6lP31hipmFlelWo29jPesc-6fBi_yp1T7NvkMuoIMt_Ha6GqoRI96v1iyMRvZLp-doicNXHZNir8D9T3xHEn6lF0DyxAgtopEhVxnfp8jZFz5m00]--></g></svg>