<svg xmlns="http://www.w3.org/2000/svg" xmlns:xlink="http://www.w3.org/1999/xlink" contentStyleType="text/css" height="1474px" preserveAspectRatio="none" style="width:1096px;height:1474px;background:#FFFFFF;" version="1.1" viewBox="0 0 1096 1474" width="1096px" zoomAndPan="magnify"><defs/><g><rect fill="#E8D0A9" height="1462.3047" rx="10" ry="10" style="stroke:#181818;stroke-width:0.5;" width="431.8926" x="26" y="6"/><text fill="#000000" font-family="Arial" font-size="13" font-weight="bold" lengthAdjust="spacing" textLength="60.7534" x="209.3066" y="18.0669">Hospital</text><rect fill="#ACD1E9" height="1462.3047" rx="10" ry="10" style="stroke:#181818;stroke-width:0.5;" width="304.7891" x="520.936" y="6"/><text fill="#000000" font-family="Arial" font-size="13" font-weight="bold" lengthAdjust="spacing" textLength="40.6631" x="650.7361" y="18.0669">ORCA</text><rect fill="#F0A1A1" height="1462.3047" rx="10" ry="10" style="stroke:#181818;stroke-width:0.5;" width="94.1602" x="885.2271" y="6"/><text fill="#000000" font-family="Arial" font-size="13" font-weight="bold" lengthAdjust="spacing" textLength="39.8696" x="910.1094" y="18.0669">Clinic</text><rect fill="#FFFFFF" height="476.2578" style="stroke:#181818;stroke-width:1;" width="10" x="72.9736" y="111.4297"/><rect fill="#FFFFFF" height="1149.9141" style="stroke:#181818;stroke-width:1;" width="10" x="759.7715" y="230.0938"/><rect fill="#FFFFFF" height="478.9922" style="stroke:#181818;stroke-width:1;" width="10" x="927.3071" y="901.0156"/><rect fill="none" height="730.3203" rx="10" ry="10" style="stroke:#000000;stroke-width:1.5;" width="922.3071" x="10" y="118.4297"/><rect fill="none" height="408.8594" rx="10" ry="10" style="stroke:#000000;stroke-width:1.5;" width="835.3418" x="20" y="432.8906"/><rect fill="none" height="509.2578" rx="10" ry="10" style="stroke:#000000;stroke-width:1.5;" width="783.9019" x="306.7432" y="862.75"/><line style="stroke:#181818;stroke-width:0.5;stroke-dasharray:5.0,5.0;" x1="77" x2="77" y1="101.4297" y2="1389.0078"/><line style="stroke:#181818;stroke-width:0.5;stroke-dasharray:5.0,5.0;" x1="219.7363" x2="219.7363" y1="101.4297" y2="1389.0078"/><line style="stroke:#181818;stroke-width:0.5;stroke-dasharray:5.0,5.0;" x1="384.7432" x2="384.7432" y1="101.4297" y2="1389.0078"/><line style="stroke:#181818;stroke-width:0.5;stroke-dasharray:5.0,5.0;" x1="606.936" x2="606.936" y1="101.4297" y2="1389.0078"/><line style="stroke:#181818;stroke-width:0.5;stroke-dasharray:5.0,5.0;" x1="763.8179" x2="763.8179" y1="101.4297" y2="1389.0078"/><line style="stroke:#181818;stroke-width:0.5;stroke-dasharray:5.0,5.0;" x1="932.2271" x2="932.2271" y1="101.4297" y2="1389.0078"/><text fill="#000000" font-family="Arial" font-size="14" lengthAdjust="spacing" textLength="89.9473" x="30" y="98.1279">Practitioner1</text><ellipse cx="77.9736" cy="33.6328" fill="#E2E2F0" rx="8" ry="8" style="stroke:#181818;stroke-width:0.5;"/><path d="M77.9736,41.6328 L77.9736,68.6328 M64.9736,49.6328 L90.9736,49.6328 M77.9736,68.6328 L64.9736,83.6328 M77.9736,68.6328 L90.9736,83.6328 " fill="none" style="stroke:#181818;stroke-width:0.5;"/><text fill="#000000" font-family="Arial" font-size="14" lengthAdjust="spacing" textLength="89.9473" x="30" y="1401.0029">Practitioner1</text><ellipse cx="77.9736" cy="1412.8047" fill="#E2E2F0" rx="8" ry="8" style="stroke:#181818;stroke-width:0.5;"/><path d="M77.9736,1420.8047 L77.9736,1447.8047 M64.9736,1428.8047 L90.9736,1428.8047 M77.9736,1447.8047 L64.9736,1462.8047 M77.9736,1447.8047 L90.9736,1462.8047 " fill="none" style="stroke:#181818;stroke-width:0.5;"/><rect fill="#D3D3D3" height="30.2969" rx="10" ry="10" style="stroke:#181818;stroke-width:0.5;" width="165.3271" x="137.7363" y="70.1328"/><text fill="#000000" font-family="Arial" font-size="14" lengthAdjust="spacing" textLength="151.3271" x="144.7363" y="90.1279">Care Plan Contributor</text><rect fill="#D3D3D3" height="30.2969" rx="10" ry="10" style="stroke:#181818;stroke-width:0.5;" width="165.3271" x="137.7363" y="1388.0078"/><text fill="#000000" font-family="Arial" font-size="14" lengthAdjust="spacing" textLength="151.3271" x="144.7363" y="1408.0029">Care Plan Contributor</text><rect fill="#808080" height="30.2969" rx="10" ry="10" style="stroke:#181818;stroke-width:0.5;" width="137.1494" x="316.7432" y="70.1328"/><text fill="#FFFFFF" font-family="Arial" font-size="14" lengthAdjust="spacing" textLength="123.1494" x="323.7432" y="90.1279">Care Plan Service</text><rect fill="#808080" height="30.2969" rx="10" ry="10" style="stroke:#181818;stroke-width:0.5;" width="137.1494" x="316.7432" y="1388.0078"/><text fill="#FFFFFF" font-family="Arial" font-size="14" lengthAdjust="spacing" textLength="123.1494" x="323.7432" y="1408.0029">Care Plan Service</text><rect fill="#D3D3D3" height="30.2969" rx="10" ry="10" style="stroke:#181818;stroke-width:0.5;" width="165.3271" x="524.936" y="70.1328"/><text fill="#000000" font-family="Arial" font-size="14" lengthAdjust="spacing" textLength="151.3271" x="531.936" y="90.1279">Care Plan Contributor</text><rect fill="#D3D3D3" height="30.2969" rx="10" ry="10" style="stroke:#181818;stroke-width:0.5;" width="165.3271" x="524.936" y="1388.0078"/><text fill="#000000" font-family="Arial" font-size="14" lengthAdjust="spacing" textLength="151.3271" x="531.936" y="1408.0029">Care Plan Contributor</text><rect fill="#E2E2F0" height="30.2969" rx="10" ry="10" style="stroke:#181818;stroke-width:0.5;" width="113.9072" x="707.8179" y="70.1328"/><text fill="#000000" font-family="Arial" font-size="14" lengthAdjust="spacing" textLength="99.9072" x="714.8179" y="90.1279">Task manager</text><rect fill="#E2E2F0" height="30.2969" rx="10" ry="10" style="stroke:#181818;stroke-width:0.5;" width="113.9072" x="707.8179" y="1388.0078"/><text fill="#000000" font-family="Arial" font-size="14" lengthAdjust="spacing" textLength="99.9072" x="714.8179" y="1408.0029">Task manager</text><rect fill="#E2E2F0" height="30.2969" rx="10" ry="10" style="stroke:#181818;stroke-width:0.5;" width="86.1602" x="889.2271" y="70.1328"/><text fill="#000000" font-family="Arial" font-size="14" lengthAdjust="spacing" textLength="72.1602" x="896.2271" y="90.1279">Care Profs</text><rect fill="#E2E2F0" height="30.2969" rx="10" ry="10" style="stroke:#181818;stroke-width:0.5;" width="86.1602" x="889.2271" y="1388.0078"/><text fill="#000000" font-family="Arial" font-size="14" lengthAdjust="spacing" textLength="72.1602" x="896.2271" y="1408.0029">Care Profs</text><rect fill="#FFFFFF" height="476.2578" style="stroke:#181818;stroke-width:1;" width="10" x="72.9736" y="111.4297"/><rect fill="#FFFFFF" height="1149.9141" style="stroke:#181818;stroke-width:1;" width="10" x="759.7715" y="230.0938"/><rect fill="#FFFFFF" height="478.9922" style="stroke:#181818;stroke-width:1;" width="10" x="927.3071" y="901.0156"/><path d="M20,118.4297 L189.9321,118.4297 L189.9321,125.5625 L179.9321,135.5625 L10,135.5625 L10,128.4297 A10,10 0 0 1 20,118.4297 " fill="#EEEEEE" style="stroke:#000000;stroke-width:1.5;"/><rect fill="none" height="730.3203" rx="10" ry="10" style="stroke:#000000;stroke-width:1.5;" width="922.3071" x="10" y="118.4297"/><text fill="#000000" font-family="Arial" font-size="13" font-weight="bold" lengthAdjust="spacing" textLength="134.9321" x="25" y="131.4966">Prelude Simplified</text><polygon fill="#181818" points="208.3999,167.8281,218.3999,171.8281,208.3999,175.8281,212.3999,171.8281" style="stroke:#181818;stroke-width:1;"/><line style="stroke:#181818;stroke-width:1;" x1="82.9736" x2="214.3999" y1="171.8281" y2="171.8281"/><text fill="#000000" font-family="Arial" font-size="13" lengthAdjust="spacing" textLength="89.2798" x="89.9736" y="151.6294">Start Request</text><text fill="#000000" font-family="Arial" font-size="13" lengthAdjust="spacing" textLength="48.1851" x="94.106" y="166.7622">referral</text><polygon fill="#181818" points="373.3179,196.9609,383.3179,200.9609,373.3179,204.9609,377.3179,200.9609" style="stroke:#181818;stroke-width:1;"/><line style="stroke:#181818;stroke-width:1;" x1="220.3999" x2="379.3179" y1="200.9609" y2="200.9609"/><text fill="#000000" font-family="Arial" font-size="13" lengthAdjust="spacing" textLength="118.5171" x="227.3999" y="195.895">create Task[main]</text><polygon fill="#181818" points="595.5996,226.0938,605.5996,230.0938,595.5996,234.0938,599.5996,230.0938" style="stroke:#181818;stroke-width:1;"/><line style="stroke:#181818;stroke-width:1;" x1="385.3179" x2="601.5996" y1="230.0938" y2="230.0938"/><text fill="#000000" font-family="Arial" font-size="13" lengthAdjust="spacing" textLength="114.1372" x="392.3179" y="225.0278">notify Task[main]</text><polygon fill="#181818" points="747.7715,255.2266,757.7715,259.2266,747.7715,263.2266,751.7715,259.2266" style="stroke:#181818;stroke-width:1;"/><line style="stroke:#181818;stroke-width:1;" x1="607.5996" x2="753.7715" y1="259.2266" y2="259.2266"/><text fill="#000000" font-family="Arial" font-size="13" lengthAdjust="spacing" textLength="37.1719" x="614.5996" y="254.1606">notify</text><polygon fill="#181818" points="618.5996,284.3594,608.5996,288.3594,618.5996,292.3594,614.5996,288.3594" style="stroke:#181818;stroke-width:1;"/><line style="stroke:#181818;stroke-width:1;" x1="612.5996" x2="758.7715" y1="288.3594" y2="288.3594"/><text fill="#000000" font-family="Arial" font-size="13" lengthAdjust="spacing" textLength="110.0239" x="624.5996" y="283.2935">fetch Task[main]</text><polygon fill="#181818" points="396.3179,313.4922,386.3179,317.4922,396.3179,321.4922,392.3179,317.4922" style="stroke:#181818;stroke-width:1;"/><line style="stroke:#181818;stroke-width:1;" x1="390.3179" x2="606.5996" y1="317.4922" y2="317.4922"/><text fill="#000000" font-family="Arial" font-size="13" lengthAdjust="spacing" textLength="110.0239" x="402.3179" y="312.4263">fetch Task[main]</text><polygon fill="#181818" points="595.5996,342.625,605.5996,346.625,595.5996,350.625,599.5996,346.625" style="stroke:#181818;stroke-width:1;"/><line style="stroke:#181818;stroke-width:1;stroke-dasharray:2.0,2.0;" x1="385.3179" x2="601.5996" y1="346.625" y2="346.625"/><text fill="#000000" font-family="Arial" font-size="13" lengthAdjust="spacing" textLength="72.833" x="392.3179" y="341.5591">Task[main]</text><polygon fill="#181818" points="747.7715,371.7578,757.7715,375.7578,747.7715,379.7578,751.7715,375.7578" style="stroke:#181818;stroke-width:1;"/><line style="stroke:#181818;stroke-width:1;stroke-dasharray:2.0,2.0;" x1="607.5996" x2="753.7715" y1="375.7578" y2="375.7578"/><text fill="#000000" font-family="Arial" font-size="13" lengthAdjust="spacing" textLength="72.833" x="614.5996" y="370.6919">Task[main]</text><line style="stroke:#181818;stroke-width:1;" x1="769.7715" x2="811.7715" y1="404.8906" y2="404.8906"/><line style="stroke:#181818;stroke-width:1;" x1="811.7715" x2="811.7715" y1="404.8906" y2="417.8906"/><line style="stroke:#181818;stroke-width:1;" x1="770.7715" x2="811.7715" y1="417.8906" y2="417.8906"/><polygon fill="#181818" points="780.7715,413.8906,770.7715,417.8906,780.7715,421.8906,776.7715,417.8906" style="stroke:#181818;stroke-width:1;"/><text fill="#000000" font-family="Arial" font-size="13" lengthAdjust="spacing" textLength="133.5356" x="776.7715" y="399.8247">evaluate Task[main]</text><path d="M30,432.8906 L96.624,432.8906 L96.624,440.0234 L86.624,450.0234 L20,450.0234 L20,442.8906 A10,10 0 0 1 30,432.8906 " fill="#EEEEEE" style="stroke:#000000;stroke-width:1.5;"/><rect fill="none" height="408.8594" rx="10" ry="10" style="stroke:#000000;stroke-width:1.5;" width="835.3418" x="20" y="432.8906"/><text fill="#000000" font-family="Arial" font-size="13" font-weight="bold" lengthAdjust="spacing" textLength="31.624" x="35" y="445.9575">loop</text><text fill="#000000" font-family="Arial" font-size="11" font-weight="bold" lengthAdjust="spacing" textLength="95.7827" x="111.624" y="445.1011">[until satisfied]</text><polygon fill="#181818" points="396.3179,467.1563,386.3179,471.1563,396.3179,475.1563,392.3179,471.1563" style="stroke:#181818;stroke-width:1;"/><line style="stroke:#181818;stroke-width:1;" x1="390.3179" x2="606.5996" y1="471.1563" y2="471.1563"/><text fill="#000000" font-family="Arial" font-size="13" lengthAdjust="spacing" textLength="198.2817" x="402.3179" y="466.0903">create subtask / questionnaire</text><polygon fill="#181818" points="231.3999,496.2891,221.3999,500.2891,231.3999,504.2891,227.3999,500.2891" style="stroke:#181818;stroke-width:1;"/><line style="stroke:#181818;stroke-width:1;" x1="225.3999" x2="384.3179" y1="500.2891" y2="500.2891"/><text fill="#000000" font-family="Arial" font-size="13" lengthAdjust="spacing" textLength="91.9331" x="237.3999" y="495.2231">notify subtask</text><polygon fill="#181818" points="373.3179,525.4219,383.3179,529.4219,373.3179,533.4219,377.3179,529.4219" style="stroke:#181818;stroke-width:1;"/><line style="stroke:#181818;stroke-width:1;" x1="220.3999" x2="379.3179" y1="529.4219" y2="529.4219"/><text fill="#000000" font-family="Arial" font-size="13" lengthAdjust="spacing" textLength="87.8198" x="227.3999" y="524.356">fetch subtask</text><polygon fill="#181818" points="231.3999,554.5547,221.3999,558.5547,231.3999,562.5547,227.3999,558.5547" style="stroke:#181818;stroke-width:1;"/><line style="stroke:#181818;stroke-width:1;stroke-dasharray:2.0,2.0;" x1="225.3999" x2="384.3179" y1="558.5547" y2="558.5547"/><text fill="#000000" font-family="Arial" font-size="13" lengthAdjust="spacing" textLength="90.981" x="237.3999" y="553.4888">Task[subtask]</text><polygon fill="#181818" points="88.9736,583.6875,78.9736,587.6875,88.9736,591.6875,84.9736,587.6875" style="stroke:#181818;stroke-width:1;"/><polygon fill="#181818" points="208.3999,583.6875,218.3999,587.6875,208.3999,591.6875,212.3999,587.6875" style="stroke:#181818;stroke-width:1;"/><line style="stroke:#181818;stroke-width:1;" x1="82.9736" x2="214.3999" y1="587.6875" y2="587.6875"/><text fill="#000000" font-family="Arial" font-size="13" lengthAdjust="spacing" textLength="113.4263" x="94.9736" y="582.6216">Fill Task[subtask]</text><polygon fill="#181818" points="373.3179,612.8203,383.3179,616.8203,373.3179,620.8203,377.3179,616.8203" style="stroke:#181818;stroke-width:1;"/><line style="stroke:#181818;stroke-width:1;" x1="220.3999" x2="379.3179" y1="616.8203" y2="616.8203"/><text fill="#000000" font-family="Arial" font-size="13" lengthAdjust="spacing" textLength="140.918" x="227.3999" y="611.7544">update Task[subtask]</text><polygon fill="#181818" points="595.5996,641.9531,605.5996,645.9531,595.5996,649.9531,599.5996,645.9531" style="stroke:#181818;stroke-width:1;"/><line style="stroke:#181818;stroke-width:1;" x1="385.3179" x2="601.5996" y1="645.9531" y2="645.9531"/><text fill="#000000" font-family="Arial" font-size="13" lengthAdjust="spacing" textLength="37.1719" x="392.3179" y="640.8872">notify</text><polygon fill="#181818" points="747.7715,671.0859,757.7715,675.0859,747.7715,679.0859,751.7715,675.0859" style="stroke:#181818;stroke-width:1;"/><line style="stroke:#181818;stroke-width:1;" x1="607.5996" x2="753.7715" y1="675.0859" y2="675.0859"/><text fill="#000000" font-family="Arial" font-size="13" lengthAdjust="spacing" textLength="37.1719" x="614.5996" y="670.02">notify</text><polygon fill="#181818" points="618.5996,700.2188,608.5996,704.2188,618.5996,708.2188,614.5996,704.2188" style="stroke:#181818;stroke-width:1;"/><line style="stroke:#181818;stroke-width:1;" x1="612.5996" x2="758.7715" y1="704.2188" y2="704.2188"/><text fill="#000000" font-family="Arial" font-size="13" lengthAdjust="spacing" textLength="128.1719" x="624.5996" y="699.1528">fetch Task[subtask]</text><polygon fill="#181818" points="396.3179,729.3516,386.3179,733.3516,396.3179,737.3516,392.3179,733.3516" style="stroke:#181818;stroke-width:1;"/><line style="stroke:#181818;stroke-width:1;" x1="390.3179" x2="606.5996" y1="733.3516" y2="733.3516"/><text fill="#000000" font-family="Arial" font-size="13" lengthAdjust="spacing" textLength="128.1719" x="402.3179" y="728.2856">fetch Task[subtask]</text><polygon fill="#181818" points="595.5996,758.4844,605.5996,762.4844,595.5996,766.4844,599.5996,762.4844" style="stroke:#181818;stroke-width:1;"/><line style="stroke:#181818;stroke-width:1;" x1="385.3179" x2="601.5996" y1="762.4844" y2="762.4844"/><text fill="#000000" font-family="Arial" font-size="13" lengthAdjust="spacing" textLength="90.981" x="392.3179" y="757.4185">Task[subtask]</text><polygon fill="#181818" points="747.7715,787.6172,757.7715,791.6172,747.7715,795.6172,751.7715,791.6172" style="stroke:#181818;stroke-width:1;"/><line style="stroke:#181818;stroke-width:1;" x1="607.5996" x2="753.7715" y1="791.6172" y2="791.6172"/><text fill="#000000" font-family="Arial" font-size="13" lengthAdjust="spacing" textLength="90.981" x="614.5996" y="786.5513">Task[subtask]</text><line style="stroke:#181818;stroke-width:1;" x1="769.7715" x2="811.7715" y1="820.75" y2="820.75"/><line style="stroke:#181818;stroke-width:1;" x1="811.7715" x2="811.7715" y1="820.75" y2="833.75"/><line style="stroke:#181818;stroke-width:1;" x1="770.7715" x2="811.7715" y1="833.75" y2="833.75"/><polygon fill="#181818" points="780.7715,829.75,770.7715,833.75,780.7715,837.75,776.7715,833.75" style="stroke:#181818;stroke-width:1;"/><text fill="#000000" font-family="Arial" font-size="13" lengthAdjust="spacing" textLength="56.5703" x="776.7715" y="815.6841">evaluate</text><path d="M316.7432,862.75 L480.4419,862.75 L480.4419,869.8828 L470.4419,879.8828 L306.7432,879.8828 L306.7432,872.75 A10,10 0 0 1 316.7432,862.75 " fill="#EEEEEE" style="stroke:#000000;stroke-width:1.5;"/><rect fill="none" height="509.2578" rx="10" ry="10" style="stroke:#000000;stroke-width:1.5;" width="783.9019" x="306.7432" y="862.75"/><text fill="#000000" font-family="Arial" font-size="13" font-weight="bold" lengthAdjust="spacing" textLength="128.6987" x="321.7432" y="875.8169">Clinic notification</text><polygon fill="#181818" points="618.5996,897.0156,608.5996,901.0156,618.5996,905.0156,614.5996,901.0156" style="stroke:#181818;stroke-width:1;"/><line style="stroke:#181818;stroke-width:1;" x1="612.5996" x2="758.7715" y1="901.0156" y2="901.0156"/><text fill="#000000" font-family="Arial" font-size="13" lengthAdjust="spacing" textLength="122.77" x="624.5996" y="895.9497">update Task[main]</text><polygon fill="#181818" points="915.3071,926.1484,925.3071,930.1484,915.3071,934.1484,919.3071,930.1484" style="stroke:#181818;stroke-width:1;"/><line style="stroke:#181818;stroke-width:1;" x1="769.7715" x2="921.3071" y1="930.1484" y2="930.1484"/><text fill="#000000" font-family="Arial" font-size="13" lengthAdjust="spacing" textLength="114.1372" x="776.7715" y="925.0825">notify Task[main]</text><polygon fill="#181818" points="618.5996,955.2813,608.5996,959.2813,618.5996,963.2813,614.5996,959.2813" style="stroke:#181818;stroke-width:1;"/><line style="stroke:#181818;stroke-width:1;" x1="612.5996" x2="926.3071" y1="959.2813" y2="959.2813"/><text fill="#000000" font-family="Arial" font-size="13" lengthAdjust="spacing" textLength="110.0239" x="624.5996" y="954.2153">fetch Task[main]</text><polygon fill="#181818" points="396.3179,984.4141,386.3179,988.4141,396.3179,992.4141,392.3179,988.4141" style="stroke:#181818;stroke-width:1;"/><line style="stroke:#181818;stroke-width:1;" x1="390.3179" x2="606.5996" y1="988.4141" y2="988.4141"/><text fill="#000000" font-family="Arial" font-size="13" lengthAdjust="spacing" textLength="110.0239" x="402.3179" y="983.3481">fetch Task[main]</text><polygon fill="#181818" points="595.5996,1013.5469,605.5996,1017.5469,595.5996,1021.5469,599.5996,1017.5469" style="stroke:#181818;stroke-width:1;"/><line style="stroke:#181818;stroke-width:1;stroke-dasharray:2.0,2.0;" x1="385.3179" x2="601.5996" y1="1017.5469" y2="1017.5469"/><text fill="#000000" font-family="Arial" font-size="13" lengthAdjust="spacing" textLength="72.833" x="392.3179" y="1012.481">Task[main]</text><polygon fill="#181818" points="915.3071,1042.6797,925.3071,1046.6797,915.3071,1050.6797,919.3071,1046.6797" style="stroke:#181818;stroke-width:1;"/><line style="stroke:#181818;stroke-width:1;stroke-dasharray:2.0,2.0;" x1="607.5996" x2="921.3071" y1="1046.6797" y2="1046.6797"/><text fill="#000000" font-family="Arial" font-size="13" lengthAdjust="spacing" textLength="72.833" x="614.5996" y="1041.6138">Task[main]</text><line style="stroke:#181818;stroke-width:1;" x1="937.3071" x2="979.3071" y1="1075.8125" y2="1075.8125"/><line style="stroke:#181818;stroke-width:1;" x1="979.3071" x2="979.3071" y1="1075.8125" y2="1088.8125"/><line style="stroke:#181818;stroke-width:1;" x1="938.3071" x2="979.3071" y1="1088.8125" y2="1088.8125"/><polygon fill="#181818" points="948.3071,1084.8125,938.3071,1088.8125,948.3071,1092.8125,944.3071,1088.8125" style="stroke:#181818;stroke-width:1;"/><text fill="#000000" font-family="Arial" font-size="13" lengthAdjust="spacing" textLength="124.3379" x="944.3071" y="1070.7466">unpack Task[main]</text><polygon fill="#181818" points="618.5996,1113.9453,608.5996,1117.9453,618.5996,1121.9453,614.5996,1117.9453" style="stroke:#181818;stroke-width:1;"/><line style="stroke:#181818;stroke-width:1;" x1="612.5996" x2="926.3071" y1="1117.9453" y2="1117.9453"/><text fill="#000000" font-family="Arial" font-size="13" lengthAdjust="spacing" textLength="246.4604" x="624.5996" y="1112.8794">fetch ServiceRequest from Task.focus</text><polygon fill="#181818" points="396.3179,1143.0781,386.3179,1147.0781,396.3179,1151.0781,392.3179,1147.0781" style="stroke:#181818;stroke-width:1;"/><line style="stroke:#181818;stroke-width:1;stroke-dasharray:2.0,2.0;" x1="390.3179" x2="606.5996" y1="1147.0781" y2="1147.0781"/><text fill="#000000" font-family="Arial" font-size="13" lengthAdjust="spacing" textLength="138.6265" x="402.3179" y="1142.0122">fetch ServiceRequest</text><polygon fill="#181818" points="595.5996,1172.2109,605.5996,1176.2109,595.5996,1180.2109,599.5996,1176.2109" style="stroke:#181818;stroke-width:1;"/><line style="stroke:#181818;stroke-width:1;stroke-dasharray:2.0,2.0;" x1="385.3179" x2="601.5996" y1="1176.2109" y2="1176.2109"/><text fill="#000000" font-family="Arial" font-size="13" lengthAdjust="spacing" textLength="150.8267" x="392.3179" y="1171.145">ServiceRequest Bundle</text><polygon fill="#181818" points="915.3071,1201.3438,925.3071,1205.3438,915.3071,1209.3438,919.3071,1205.3438" style="stroke:#181818;stroke-width:1;"/><line style="stroke:#181818;stroke-width:1;stroke-dasharray:2.0,2.0;" x1="607.5996" x2="921.3071" y1="1205.3438" y2="1205.3438"/><text fill="#000000" font-family="Arial" font-size="13" lengthAdjust="spacing" textLength="150.8267" x="614.5996" y="1200.2778">ServiceRequest Bundle</text><polygon fill="#181818" points="618.5996,1230.4766,608.5996,1234.4766,618.5996,1238.4766,614.5996,1234.4766" style="stroke:#181818;stroke-width:1;"/><line style="stroke:#181818;stroke-width:1;" x1="612.5996" x2="926.3071" y1="1234.4766" y2="1234.4766"/><text fill="#000000" font-family="Arial" font-size="13" lengthAdjust="spacing" textLength="282.9785" x="624.5996" y="1229.4106">fetch Condition from Task.reasonReference</text><polygon fill="#181818" points="396.3179,1259.6094,386.3179,1263.6094,396.3179,1267.6094,392.3179,1263.6094" style="stroke:#181818;stroke-width:1;"/><line style="stroke:#181818;stroke-width:1;stroke-dasharray:2.0,2.0;" x1="390.3179" x2="606.5996" y1="1263.6094" y2="1263.6094"/><text fill="#000000" font-family="Arial" font-size="13" lengthAdjust="spacing" textLength="99.2266" x="402.3179" y="1258.5435">fetch Condition</text><polygon fill="#181818" points="595.5996,1288.7422,605.5996,1292.7422,595.5996,1296.7422,599.5996,1292.7422" style="stroke:#181818;stroke-width:1;"/><line style="stroke:#181818;stroke-width:1;stroke-dasharray:2.0,2.0;" x1="385.3179" x2="601.5996" y1="1292.7422" y2="1292.7422"/><text fill="#000000" font-family="Arial" font-size="13" lengthAdjust="spacing" textLength="111.4268" x="392.3179" y="1287.6763">Condition Bundle</text><polygon fill="#181818" points="915.3071,1317.875,925.3071,1321.875,915.3071,1325.875,919.3071,1321.875" style="stroke:#181818;stroke-width:1;"/><line style="stroke:#181818;stroke-width:1;stroke-dasharray:2.0,2.0;" x1="607.5996" x2="921.3071" y1="1321.875" y2="1321.875"/><text fill="#000000" font-family="Arial" font-size="13" lengthAdjust="spacing" textLength="111.4268" x="614.5996" y="1316.8091">Condition Bundle</text><line style="stroke:#181818;stroke-width:1;" x1="937.3071" x2="979.3071" y1="1351.0078" y2="1351.0078"/><line style="stroke:#181818;stroke-width:1;" x1="979.3071" x2="979.3071" y1="1351.0078" y2="1364.0078"/><line style="stroke:#181818;stroke-width:1;" x1="938.3071" x2="979.3071" y1="1364.0078" y2="1364.0078"/><polygon fill="#181818" points="948.3071,1360.0078,938.3071,1364.0078,948.3071,1368.0078,944.3071,1364.0078" style="stroke:#181818;stroke-width:1;"/><text fill="#000000" font-family="Arial" font-size="13" lengthAdjust="spacing" textLength="84.0938" x="944.3071" y="1345.9419">Create ticket</text><!--SRC=[jLLDZzCm4BtdLuosPw3fYQsMbPP82mS4rPORx67gJ5ghZXrifx3_7jjryvrgET1BuyoyvpTlF8uvSbcXnXAqgcNEb9QaORLCJ1F8gS1Qs4SbxLSi2HuqHv4aE_K7FYjJSOi25lG-N-9j0kw7p2eD6-t-kUNAyQM0flyY93fwonclK5guoL0JR0HAoDn6ckzgntBZWTacIs7nXUyFzfF6bp7qhd08O4ee_U7tWLkwRycsf4-SKIJQmY9GaCp1wJyNyUqfUu05iZobst_KjRggwpkQ8vGeSKzdH7pkRvy9BZc3HR7456UDqQemWOEvPULNBSlUjQvoAIJgd63BoqhmWbEUUCDFQ6dWVRyrR-xF3gzXQzs-y4I_QZBsfmHD1MdjUXtY8M-x1gR9K_hYVfJ8vNFYVJsphDOWbUN5IpVSgBYK7unpWBY-O9AuRhaAikpGt-cC348ceav70nx1kZjsWfrTcp2TKDI3AeLI5TJISW46BJV1OT-jdgZeZgbtrdV_7GGpdTKIkQQOVx4hRUoA-HU-T51aFznKcSP2OlYvXT-vX5wRr_38XPX8psdcb8oar5NUM3BOSTJ_dZ73FljOn_LniuVrJFPyNi8yHx__lPHhno2Cckz_U0ZZ5eSk3cyeZ3FqtesFSTUumKYqqzn1DI-dfga9_iSnwGYOsxcJKhll13k-IcEyZUCL0uLMPS2zBHIhJIkW8xmF6OWVy7rqNp11atLCPyuATNTz7YQXez5Djb7ooL-A91bDgcrm0w4jtnMDewGvnxFp9UE-4KUoxPdy2m00]--></g></svg>