<svg xmlns="http://www.w3.org/2000/svg" xmlns:xlink="http://www.w3.org/1999/xlink" contentStyleType="text/css" data-diagram-type="SEQUENCE" height="1279px" preserveAspectRatio="none" style="width:1142px;height:1279px;background:#FFFFFF;" version="1.1" viewBox="0 0 1142 1279" width="1142px" zoomAndPan="magnify"><title>System-Level Sequence Diagram</title><defs/><g><text fill="#000000" font-family="sans-serif" font-size="14" font-weight="bold" lengthAdjust="spacing" textLength="259.3623" x="437.551" y="27.9951">System-Level Sequence Diagram</text><rect fill="#E6E6FA" height="1096.9766" style="stroke:#181818;stroke-width:0.5;" width="511.5923" x="16" y="176.0781"/><text fill="#000000" font-family="sans-serif" font-size="13" font-weight="bold" lengthAdjust="spacing" textLength="175.189" x="184.2017" y="188.145">Local Care Organization</text><rect fill="#E6E6FA" height="1096.9766" style="stroke:#181818;stroke-width:0.5;" width="321.7031" x="812.7612" y="176.0781"/><text fill="#000000" font-family="sans-serif" font-size="13" font-weight="bold" lengthAdjust="spacing" textLength="193.375" x="876.9253" y="188.145">Remote Care Organization</text><rect fill="none" height="96.5313" style="stroke:#000000;stroke-width:1.5;" width="523.5923" x="10" y="317.6406"/><rect fill="none" height="290.4609" style="stroke:#000000;stroke-width:1.5;" width="729.7612" x="97" y="428.1719"/><rect fill="none" height="96.5313" style="stroke:#000000;stroke-width:1.5;" width="709.7612" x="107" y="525.7031"/><rect fill="none" height="75.3984" style="stroke:#000000;stroke-width:1.5;" width="350.2207" x="466.5405" y="636.2344"/><rect fill="none" height="274.3281" style="stroke:#000000;stroke-width:1.5;" width="855.4644" x="87" y="732.6328"/><rect fill="none" height="185.9297" style="stroke:#000000;stroke-width:1.5;" width="835.4644" x="97" y="756.7656"/><rect fill="none" height="96.5313" style="stroke:#000000;stroke-width:1.5;" width="815.4644" x="107" y="780.8984"/><rect fill="none" height="125.6641" style="stroke:#000000;stroke-width:1.5;" width="563.4453" x="10" y="1020.9609"/><g><title>Care Professional</title><rect fill="#000000" fill-opacity="0.00000" height="922.25" width="8" x="79.9321" y="271.5078"/><line style="stroke:#181818;stroke-width:0.5;stroke-dasharray:5,5;" x1="83" x2="83" y1="271.5078" y2="1193.7578"/></g><g><title>XIS</title><rect fill="#000000" fill-opacity="0.00000" height="922.25" width="8" x="272.8062" y="271.5078"/><line style="stroke:#181818;stroke-width:0.5;stroke-dasharray:5,5;" x1="276.5029" x2="276.5029" y1="271.5078" y2="1193.7578"/></g><g><title>Orca</title><rect fill="#000000" fill-opacity="0.00000" height="922.25" width="8" x="496.0664" y="271.5078"/><line style="stroke:#181818;stroke-width:0.5;stroke-dasharray:5,5;" x1="499.5405" x2="499.5405" y1="271.5078" y2="1193.7578"/></g><g><title>Care Plan Service</title><rect fill="#000000" fill-opacity="0.00000" height="922.25" width="8" x="734.1865" y="271.5078"/><line style="stroke:#181818;stroke-width:0.5;stroke-dasharray:5,5;" x1="737.6118" x2="737.6118" y1="271.5078" y2="1193.7578"/></g><g><title>Remote XIS</title><rect fill="#000000" fill-opacity="0.00000" height="922.25" width="8" x="860.6128" y="271.5078"/><line style="stroke:#181818;stroke-width:0.5;stroke-dasharray:5,5;" x1="863.7612" x2="863.7612" y1="271.5078" y2="1193.7578"/></g><g><title>Care Professional</title><rect fill="#000000" fill-opacity="0.00000" height="922.25" width="8" x="1062.5322" y="271.5078"/><line style="stroke:#181818;stroke-width:0.5;stroke-dasharray:5,5;" x1="1065.6001" x2="1065.6001" y1="271.5078" y2="1193.7578"/></g><g class="participant participant-head" data-participant="LocalCP"><text fill="#000000" font-family="sans-serif" font-size="14" lengthAdjust="spacing" textLength="121.8643" x="20" y="268.2061">Care Professional</text><ellipse cx="83.9321" cy="203.7109" fill="#E2E2F0" rx="8" ry="8" style="stroke:#181818;stroke-width:0.5;"/><path d="M83.9321,211.7109 L83.9321,238.7109 M70.9321,219.7109 L96.9321,219.7109 M83.9321,238.7109 L70.9321,253.7109 M83.9321,238.7109 L96.9321,253.7109" fill="none" style="stroke:#181818;stroke-width:0.5;"/></g><g class="participant participant-tail" data-participant="LocalCP"><text fill="#000000" font-family="sans-serif" font-size="14" lengthAdjust="spacing" textLength="121.8643" x="20" y="1205.7529">Care Professional</text><ellipse cx="83.9321" cy="1217.5547" fill="#E2E2F0" rx="8" ry="8" style="stroke:#181818;stroke-width:0.5;"/><path d="M83.9321,1225.5547 L83.9321,1252.5547 M70.9321,1233.5547 L96.9321,1233.5547 M83.9321,1252.5547 L70.9321,1267.5547 M83.9321,1252.5547 L96.9321,1267.5547" fill="none" style="stroke:#181818;stroke-width:0.5;"/></g><g class="participant participant-head" data-participant="LocalXIS"><rect fill="#E2E2F0" height="30.2969" rx="2.5" ry="2.5" style="stroke:#181818;stroke-width:0.5;" width="36.6064" x="258.5029" y="240.2109"/><text fill="#000000" font-family="sans-serif" font-size="14" lengthAdjust="spacing" textLength="22.6064" x="265.5029" y="260.2061">XIS</text></g><g class="participant participant-tail" data-participant="LocalXIS"><rect fill="#E2E2F0" height="30.2969" rx="2.5" ry="2.5" style="stroke:#181818;stroke-width:0.5;" width="36.6064" x="258.5029" y="1192.7578"/><text fill="#000000" font-family="sans-serif" font-size="14" lengthAdjust="spacing" textLength="22.6064" x="265.5029" y="1212.7529">XIS</text></g><g class="participant participant-head" data-participant="LocalOrca"><rect fill="#E2E2F0" height="30.2969" rx="2.5" ry="2.5" style="stroke:#181818;stroke-width:0.5;" width="47.0518" x="476.5405" y="240.2109"/><text fill="#000000" font-family="sans-serif" font-size="14" lengthAdjust="spacing" textLength="33.0518" x="483.5405" y="260.2061">Orca</text></g><g class="participant participant-tail" data-participant="LocalOrca"><rect fill="#E2E2F0" height="30.2969" rx="2.5" ry="2.5" style="stroke:#181818;stroke-width:0.5;" width="47.0518" x="476.5405" y="1192.7578"/><text fill="#000000" font-family="sans-serif" font-size="14" lengthAdjust="spacing" textLength="33.0518" x="483.5405" y="1212.7529">Orca</text></g><g class="participant participant-head" data-participant="CPS"><rect fill="#E2E2F0" height="30.2969" rx="2.5" ry="2.5" style="stroke:#181818;stroke-width:0.5;" width="137.1494" x="669.6118" y="240.2109"/><text fill="#000000" font-family="sans-serif" font-size="14" lengthAdjust="spacing" textLength="123.1494" x="676.6118" y="260.2061">Care Plan Service</text></g><g class="participant participant-tail" data-participant="CPS"><rect fill="#E2E2F0" height="30.2969" rx="2.5" ry="2.5" style="stroke:#181818;stroke-width:0.5;" width="137.1494" x="669.6118" y="1192.7578"/><text fill="#000000" font-family="sans-serif" font-size="14" lengthAdjust="spacing" textLength="123.1494" x="676.6118" y="1212.7529">Care Plan Service</text></g><g class="participant participant-head" data-participant="RemoteXIS"><rect fill="#E2E2F0" height="30.2969" rx="2.5" ry="2.5" style="stroke:#181818;stroke-width:0.5;" width="95.7031" x="816.7612" y="240.2109"/><text fill="#000000" font-family="sans-serif" font-size="14" lengthAdjust="spacing" textLength="81.7031" x="823.7612" y="260.2061">Remote XIS</text></g><g class="participant participant-tail" data-participant="RemoteXIS"><rect fill="#E2E2F0" height="30.2969" rx="2.5" ry="2.5" style="stroke:#181818;stroke-width:0.5;" width="95.7031" x="816.7612" y="1192.7578"/><text fill="#000000" font-family="sans-serif" font-size="14" lengthAdjust="spacing" textLength="81.7031" x="823.7612" y="1212.7529">Remote XIS</text></g><g class="participant participant-head" data-participant="RemoteCP"><text fill="#000000" font-family="sans-serif" font-size="14" lengthAdjust="spacing" textLength="121.8643" x="1002.6001" y="268.2061">Care Professional</text><ellipse cx="1066.5322" cy="203.7109" fill="#E2E2F0" rx="8" ry="8" style="stroke:#181818;stroke-width:0.5;"/><path d="M1066.5322,211.7109 L1066.5322,238.7109 M1053.5322,219.7109 L1079.5322,219.7109 M1066.5322,238.7109 L1053.5322,253.7109 M1066.5322,238.7109 L1079.5322,253.7109" fill="none" style="stroke:#181818;stroke-width:0.5;"/></g><g class="participant participant-tail" data-participant="RemoteCP"><text fill="#000000" font-family="sans-serif" font-size="14" lengthAdjust="spacing" textLength="121.8643" x="1002.6001" y="1205.7529">Care Professional</text><ellipse cx="1066.5322" cy="1217.5547" fill="#E2E2F0" rx="8" ry="8" style="stroke:#181818;stroke-width:0.5;"/><path d="M1066.5322,1225.5547 L1066.5322,1252.5547 M1053.5322,1233.5547 L1079.5322,1233.5547 M1066.5322,1252.5547 L1053.5322,1267.5547 M1066.5322,1252.5547 L1079.5322,1267.5547" fill="none" style="stroke:#181818;stroke-width:0.5;"/></g><g class="message" data-participant-1="LocalCP" data-participant-2="LocalXIS"><polygon fill="#181818" points="264.8062,298.6406,274.8062,302.6406,264.8062,306.6406,268.8062,302.6406" style="stroke:#181818;stroke-width:1;"/><line style="stroke:#181818;stroke-width:1;" x1="83.9321" x2="270.8062" y1="302.6406" y2="302.6406"/><text fill="#000000" font-family="sans-serif" font-size="13" font-weight="bold" lengthAdjust="spacing" textLength="9.0454" x="90.9321" y="297.5747">1</text><text fill="#000000" font-family="sans-serif" font-size="13" lengthAdjust="spacing" textLength="82.5195" x="103.9775" y="297.5747">Show details</text></g><path d="M10,317.6406 L140.7251,317.6406 L140.7251,324.7734 L130.7251,334.7734 L10,334.7734 L10,317.6406" fill="#EEEEEE" style="stroke:#000000;stroke-width:1.5;"/><rect fill="none" height="96.5313" style="stroke:#000000;stroke-width:1.5;" width="523.5923" x="10" y="317.6406"/><text fill="#000000" font-family="sans-serif" font-size="13" font-weight="bold" lengthAdjust="spacing" textLength="85.7251" x="25" y="330.7075">App Launch</text><g class="message" data-participant-1="LocalXIS" data-participant-2="LocalOrca"><polygon fill="#181818" points="488.0664,370.0391,498.0664,374.0391,488.0664,378.0391,492.0664,374.0391" style="stroke:#181818;stroke-width:1;"/><line style="stroke:#181818;stroke-width:1;" x1="276.8062" x2="494.0664" y1="374.0391" y2="374.0391"/><text fill="#000000" font-family="sans-serif" font-size="13" font-weight="bold" lengthAdjust="spacing" textLength="9.0454" x="283.8062" y="361.4067">2</text><text fill="#000000" font-family="sans-serif" font-size="13" lengthAdjust="spacing" textLength="133.7007" x="296.8516" y="353.8403">Browser App Launch</text><text fill="#000000" font-family="sans-serif" font-size="13" lengthAdjust="spacing" textLength="146.3833" x="296.8516" y="368.9731">(user, patient context)</text></g><path d="M26,339.7734 L26,379.7734 L271,379.7734 L271,349.7734 L261,339.7734 L26,339.7734" fill="#FEFFDD" style="stroke:#181818;stroke-width:0.5;"/><path d="M261,339.7734 L261,349.7734 L271,349.7734 L261,339.7734" fill="#FEFFDD" style="stroke:#181818;stroke-width:0.5;"/><text fill="#000000" font-family="sans-serif" font-size="13" lengthAdjust="spacing" textLength="224.0469" x="32" y="356.8403">App Launch is vendor/XIS-specific.</text><text fill="#000000" font-family="sans-serif" font-size="13" lengthAdjust="spacing" textLength="142.5493" x="32" y="371.9731">Epic: SMART on FHIR?</text><g class="message" data-participant-1="LocalXIS" data-participant-2="LocalCP"><polygon fill="#181818" points="94.9321,402.1719,84.9321,406.1719,94.9321,410.1719,90.9321,406.1719" style="stroke:#181818;stroke-width:1;"/><line style="stroke:#181818;stroke-width:1;stroke-dasharray:2,2;" x1="88.9321" x2="275.8062" y1="406.1719" y2="406.1719"/><text fill="#000000" font-family="sans-serif" font-size="13" font-weight="bold" lengthAdjust="spacing" textLength="9.0454" x="100.9321" y="401.106">3</text><text fill="#000000" font-family="sans-serif" font-size="13" lengthAdjust="spacing" textLength="155.8286" x="113.9775" y="401.106">Redirect/Popup browser</text></g><path d="M97,428.1719 L269.0483,428.1719 L269.0483,435.3047 L259.0483,445.3047 L97,445.3047 L97,428.1719" fill="#EEEEEE" style="stroke:#000000;stroke-width:1.5;"/><rect fill="none" height="290.4609" style="stroke:#000000;stroke-width:1.5;" width="729.7612" x="97" y="428.1719"/><text fill="#000000" font-family="sans-serif" font-size="13" font-weight="bold" lengthAdjust="spacing" textLength="127.0483" x="112" y="441.2388">Data Localisation</text><g class="message" data-participant-1="LocalOrca" data-participant-2="LocalXIS"><polygon fill="#181818" points="287.8062,477.5703,277.8062,481.5703,287.8062,485.5703,283.8062,481.5703" style="stroke:#181818;stroke-width:1;"/><line style="stroke:#181818;stroke-width:1;" x1="281.8062" x2="499.0664" y1="481.5703" y2="481.5703"/><text fill="#000000" font-family="sans-serif" font-size="13" font-weight="bold" lengthAdjust="spacing" textLength="9.0454" x="293.8062" y="468.938">4</text><text fill="#000000" font-family="sans-serif" font-size="13" lengthAdjust="spacing" textLength="151.9692" x="306.8516" y="461.3716">Find external Care Plan</text><text fill="#000000" font-family="sans-serif" font-size="13" lengthAdjust="spacing" textLength="186.2148" x="306.8516" y="476.5044">references for patient (FHIR)</text></g><g class="message" data-participant-1="LocalXIS" data-participant-2="LocalOrca"><polygon fill="#181818" points="488.0664,506.7031,498.0664,510.7031,488.0664,514.7031,492.0664,510.7031" style="stroke:#181818;stroke-width:1;"/><line style="stroke:#181818;stroke-width:1;stroke-dasharray:2,2;" x1="276.8062" x2="494.0664" y1="510.7031" y2="510.7031"/><text fill="#000000" font-family="sans-serif" font-size="13" font-weight="bold" lengthAdjust="spacing" textLength="9.0454" x="283.8062" y="505.6372">5</text><text fill="#000000" font-family="sans-serif" font-size="13" lengthAdjust="spacing" textLength="139.4136" x="296.8516" y="505.6372">Care Plan References</text></g><path d="M107,525.7031 L371.4512,525.7031 L371.4512,532.8359 L361.4512,542.8359 L107,542.8359 L107,525.7031" fill="#EEEEEE" style="stroke:#000000;stroke-width:1.5;"/><rect fill="none" height="96.5313" style="stroke:#000000;stroke-width:1.5;" width="709.7612" x="107" y="525.7031"/><text fill="#000000" font-family="sans-serif" font-size="13" font-weight="bold" lengthAdjust="spacing" textLength="219.4512" x="122" y="538.77">OAuth2 authentication at CPS</text><g class="message" data-participant-1="LocalOrca" data-participant-2="CPS"><polygon fill="#181818" points="726.1865,578.1016,736.1865,582.1016,726.1865,586.1016,730.1865,582.1016" style="stroke:#181818;stroke-width:1;"/><line style="stroke:#181818;stroke-width:1;" x1="500.0664" x2="732.1865" y1="582.1016" y2="582.1016"/><text fill="#000000" font-family="sans-serif" font-size="13" font-weight="bold" lengthAdjust="spacing" textLength="9.0454" x="507.0664" y="569.4692">6</text><text fill="#000000" font-family="sans-serif" font-size="13" lengthAdjust="spacing" textLength="146.0469" x="520.1118" y="561.9028">Request Access Token</text><text fill="#000000" font-family="sans-serif" font-size="13" lengthAdjust="spacing" textLength="50.3623" x="524.2441" y="577.0356">for user</text></g><path d="M117,547.8359 L117,587.8359 L495,587.8359 L495,557.8359 L485,547.8359 L117,547.8359" fill="#FEFFDD" style="stroke:#181818;stroke-width:0.5;"/><path d="M485,547.8359 L485,557.8359 L495,557.8359 L485,547.8359" fill="#FEFFDD" style="stroke:#181818;stroke-width:0.5;"/><text fill="#000000" font-family="sans-serif" font-size="13" lengthAdjust="spacing" textLength="354.9419" x="123" y="564.9028">This involves the user presenting a Care Organization-</text><text fill="#000000" font-family="sans-serif" font-size="13" lengthAdjust="spacing" textLength="357.0493" x="123" y="580.0356">credential and a personal Care Professional credential.</text><g class="message" data-participant-1="CPS" data-participant-2="LocalOrca"><polygon fill="#181818" points="511.0664,610.2344,501.0664,614.2344,511.0664,618.2344,507.0664,614.2344" style="stroke:#181818;stroke-width:1;"/><line style="stroke:#181818;stroke-width:1;stroke-dasharray:2,2;" x1="505.0664" x2="737.1865" y1="614.2344" y2="614.2344"/><text fill="#000000" font-family="sans-serif" font-size="13" font-weight="bold" lengthAdjust="spacing" textLength="9.0454" x="517.0664" y="609.1685">7</text><text fill="#000000" font-family="sans-serif" font-size="13" lengthAdjust="spacing" textLength="88.5244" x="530.1118" y="609.1685">Access Token</text></g><path d="M466.5405,636.2344 L543.1646,636.2344 L543.1646,643.3672 L533.1646,653.3672 L466.5405,653.3672 L466.5405,636.2344" fill="#EEEEEE" style="stroke:#000000;stroke-width:1.5;"/><rect fill="none" height="75.3984" style="stroke:#000000;stroke-width:1.5;" width="350.2207" x="466.5405" y="636.2344"/><text fill="#000000" font-family="sans-serif" font-size="13" font-weight="bold" lengthAdjust="spacing" textLength="31.624" x="481.5405" y="649.3013">loop</text><text fill="#000000" font-family="sans-serif" font-size="11" font-weight="bold" lengthAdjust="spacing" textLength="217.873" x="558.1646" y="648.4448">[Collect CarePlans and CareTeams]</text><g class="message" data-participant-1="LocalOrca" data-participant-2="CPS"><polygon fill="#181818" points="726.1865,670.5,736.1865,674.5,726.1865,678.5,730.1865,674.5" style="stroke:#181818;stroke-width:1;"/><line style="stroke:#181818;stroke-width:1;" x1="500.0664" x2="732.1865" y1="674.5" y2="674.5"/><text fill="#000000" font-family="sans-serif" font-size="13" font-weight="bold" lengthAdjust="spacing" textLength="9.0454" x="507.0664" y="669.4341">8</text><text fill="#000000" font-family="sans-serif" font-size="13" lengthAdjust="spacing" textLength="201.0747" x="520.1118" y="669.4341">Get CarePlan/CareTeam (FHIR)</text></g><g class="message" data-participant-1="CPS" data-participant-2="LocalOrca"><polygon fill="#181818" points="511.0664,699.6328,501.0664,703.6328,511.0664,707.6328,507.0664,703.6328" style="stroke:#181818;stroke-width:1;"/><line style="stroke:#181818;stroke-width:1;stroke-dasharray:2,2;" x1="505.0664" x2="737.1865" y1="703.6328" y2="703.6328"/><text fill="#000000" font-family="sans-serif" font-size="13" font-weight="bold" lengthAdjust="spacing" textLength="9.0454" x="517.0664" y="698.5669">9</text><text fill="#000000" font-family="sans-serif" font-size="13" lengthAdjust="spacing" textLength="129.3779" x="530.1118" y="698.5669">CarePlan/CareTeam</text></g><path d="M87,732.6328 L237.5044,732.6328 L237.5044,739.7656 L227.5044,749.7656 L87,749.7656 L87,732.6328" fill="#EEEEEE" style="stroke:#000000;stroke-width:1.5;"/><rect fill="none" height="274.3281" style="stroke:#000000;stroke-width:1.5;" width="855.4644" x="87" y="732.6328"/><text fill="#000000" font-family="sans-serif" font-size="13" font-weight="bold" lengthAdjust="spacing" textLength="105.5044" x="102" y="745.6997">Data Retrieval</text><path d="M97,756.7656 L173.624,756.7656 L173.624,763.8984 L163.624,773.8984 L97,773.8984 L97,756.7656" fill="#EEEEEE" style="stroke:#000000;stroke-width:1.5;"/><rect fill="none" height="185.9297" style="stroke:#000000;stroke-width:1.5;" width="835.4644" x="97" y="756.7656"/><text fill="#000000" font-family="sans-serif" font-size="13" font-weight="bold" lengthAdjust="spacing" textLength="31.624" x="112" y="769.8325">loop</text><text fill="#000000" font-family="sans-serif" font-size="11" font-weight="bold" lengthAdjust="spacing" textLength="156.1323" x="188.624" y="768.9761">[Remote XIS (1 or more)]</text><path d="M107,780.8984 L428.104,780.8984 L428.104,788.0313 L418.104,798.0313 L107,798.0313 L107,780.8984" fill="#EEEEEE" style="stroke:#000000;stroke-width:1.5;"/><rect fill="none" height="96.5313" style="stroke:#000000;stroke-width:1.5;" width="815.4644" x="107" y="780.8984"/><text fill="#000000" font-family="sans-serif" font-size="13" font-weight="bold" lengthAdjust="spacing" textLength="276.104" x="122" y="793.9653">OAuth2 authentication at Remote XIS</text><g class="message" data-participant-1="LocalOrca" data-participant-2="RemoteXIS"><polygon fill="#181818" points="852.6128,833.2969,862.6128,837.2969,852.6128,841.2969,856.6128,837.2969" style="stroke:#181818;stroke-width:1;"/><line style="stroke:#181818;stroke-width:1;" x1="500.0664" x2="858.6128" y1="837.2969" y2="837.2969"/><text fill="#000000" font-family="sans-serif" font-size="13" font-weight="bold" lengthAdjust="spacing" textLength="18.0908" x="507.0664" y="824.6646">10</text><text fill="#000000" font-family="sans-serif" font-size="13" lengthAdjust="spacing" textLength="146.0469" x="529.1572" y="817.0981">Request Access Token</text><text fill="#000000" font-family="sans-serif" font-size="13" lengthAdjust="spacing" textLength="50.3623" x="533.2896" y="832.231">for user</text></g><path d="M117,803.0313 L117,843.0313 L495,843.0313 L495,813.0313 L485,803.0313 L117,803.0313" fill="#FEFFDD" style="stroke:#181818;stroke-width:0.5;"/><path d="M485,803.0313 L485,813.0313 L495,813.0313 L485,803.0313" fill="#FEFFDD" style="stroke:#181818;stroke-width:0.5;"/><text fill="#000000" font-family="sans-serif" font-size="13" lengthAdjust="spacing" textLength="354.9419" x="123" y="820.0981">This involves the user presenting a Care Organization-</text><text fill="#000000" font-family="sans-serif" font-size="13" lengthAdjust="spacing" textLength="357.0493" x="123" y="835.231">credential and a personal Care Professional credential.</text><g class="message" data-participant-1="RemoteXIS" data-participant-2="LocalOrca"><polygon fill="#181818" points="511.0664,865.4297,501.0664,869.4297,511.0664,873.4297,507.0664,869.4297" style="stroke:#181818;stroke-width:1;"/><line style="stroke:#181818;stroke-width:1;stroke-dasharray:2,2;" x1="505.0664" x2="863.6128" y1="869.4297" y2="869.4297"/><text fill="#000000" font-family="sans-serif" font-size="13" font-weight="bold" lengthAdjust="spacing" textLength="18.0908" x="517.0664" y="864.3638">11</text><text fill="#000000" font-family="sans-serif" font-size="13" lengthAdjust="spacing" textLength="88.5244" x="539.1572" y="864.3638">Access Token</text></g><g class="message" data-participant-1="LocalOrca" data-participant-2="RemoteXIS"><polygon fill="#181818" points="852.6128,901.5625,862.6128,905.5625,852.6128,909.5625,856.6128,905.5625" style="stroke:#181818;stroke-width:1;"/><line style="stroke:#181818;stroke-width:1;" x1="500.0664" x2="858.6128" y1="905.5625" y2="905.5625"/><text fill="#000000" font-family="sans-serif" font-size="13" font-weight="bold" lengthAdjust="spacing" textLength="18.0908" x="507.0664" y="900.4966">12</text><text fill="#000000" font-family="sans-serif" font-size="13" lengthAdjust="spacing" textLength="135.2686" x="529.1572" y="900.4966">Get resources (FHIR)</text></g><g class="message" data-participant-1="RemoteXIS" data-participant-2="LocalOrca"><polygon fill="#181818" points="511.0664,930.6953,501.0664,934.6953,511.0664,938.6953,507.0664,934.6953" style="stroke:#181818;stroke-width:1;"/><line style="stroke:#181818;stroke-width:1;stroke-dasharray:2,2;" x1="505.0664" x2="863.6128" y1="934.6953" y2="934.6953"/><text fill="#000000" font-family="sans-serif" font-size="13" font-weight="bold" lengthAdjust="spacing" textLength="18.0908" x="517.0664" y="929.6294">13</text><text fill="#000000" font-family="sans-serif" font-size="13" lengthAdjust="spacing" textLength="67.2598" x="539.1572" y="929.6294">Resources</text></g><g class="message" data-participant-1="LocalOrca" data-participant-2="LocalOrca"><line style="stroke:#181818;stroke-width:1;" x1="500.0664" x2="542.0664" y1="985.9609" y2="985.9609"/><line style="stroke:#181818;stroke-width:1;" x1="542.0664" x2="542.0664" y1="985.9609" y2="998.9609"/><line style="stroke:#181818;stroke-width:1;" x1="501.0664" x2="542.0664" y1="998.9609" y2="998.9609"/><polygon fill="#181818" points="511.0664,994.9609,501.0664,998.9609,511.0664,1002.9609,507.0664,998.9609" style="stroke:#181818;stroke-width:1;"/><text fill="#000000" font-family="sans-serif" font-size="13" font-weight="bold" lengthAdjust="spacing" textLength="18.0908" x="507.0664" y="973.3286">14</text><text fill="#000000" font-family="sans-serif" font-size="13" lengthAdjust="spacing" textLength="92.4663" x="529.1572" y="965.7622">Collect results</text><text fill="#000000" font-family="sans-serif" font-size="13" lengthAdjust="spacing" textLength="108.5449" x="529.1572" y="980.895">into FHIR Bundle</text></g><path d="M10,1020.9609 L177.1797,1020.9609 L177.1797,1028.0938 L167.1797,1038.0938 L10,1038.0938 L10,1020.9609" fill="#EEEEEE" style="stroke:#000000;stroke-width:1.5;"/><rect fill="none" height="125.6641" style="stroke:#000000;stroke-width:1.5;" width="563.4453" x="10" y="1020.9609"/><text fill="#000000" font-family="sans-serif" font-size="13" font-weight="bold" lengthAdjust="spacing" textLength="122.1797" x="25" y="1034.0278">App Termination</text><g class="message" data-participant-1="LocalOrca" data-participant-2="LocalCP"><polygon fill="#181818" points="94.9321,1070.3594,84.9321,1074.3594,94.9321,1078.3594,90.9321,1074.3594" style="stroke:#181818;stroke-width:1;"/><line style="stroke:#181818;stroke-width:1;stroke-dasharray:2,2;" x1="88.9321" x2="499.0664" y1="1074.3594" y2="1074.3594"/><text fill="#000000" font-family="sans-serif" font-size="13" font-weight="bold" lengthAdjust="spacing" textLength="18.0908" x="100.9321" y="1061.7271">15</text><text fill="#000000" font-family="sans-serif" font-size="13" lengthAdjust="spacing" textLength="131.8154" x="123.0229" y="1054.1606">Redirect back to XIS</text><text fill="#000000" font-family="sans-serif" font-size="13" lengthAdjust="spacing" textLength="107.3452" x="123.0229" y="1069.2935">or close browser</text></g><g class="message" data-participant-1="LocalCP" data-participant-2="LocalXIS"><polygon fill="#181818" points="264.8062,1102.4922,274.8062,1106.4922,264.8062,1110.4922,268.8062,1106.4922" style="stroke:#181818;stroke-width:1;"/><line style="stroke:#181818;stroke-width:1;stroke-dasharray:2,2;" x1="83.9321" x2="270.8062" y1="1106.4922" y2="1106.4922"/><text fill="#000000" font-family="sans-serif" font-size="13" font-weight="bold" lengthAdjust="spacing" textLength="18.0908" x="90.9321" y="1101.4263">16</text><text fill="#000000" font-family="sans-serif" font-size="13" lengthAdjust="spacing" textLength="4.1323" x="113.0229" y="1101.4263">&#160;</text></g><path d="M281,1087.3594 L281,1112.3594 L557,1112.3594 L557,1097.3594 L547,1087.3594 L281,1087.3594" fill="#FEFFDD" style="stroke:#181818;stroke-width:0.5;"/><path d="M547,1087.3594 L547,1097.3594 L557,1097.3594 L547,1087.3594" fill="#FEFFDD" style="stroke:#181818;stroke-width:0.5;"/><text fill="#000000" font-family="sans-serif" font-size="13" lengthAdjust="spacing" textLength="255.6392" x="287" y="1104.4263">App Termination is vendor/XIS-specific.</text><g class="message" data-participant-1="LocalXIS" data-participant-2="LocalOrca"><polygon fill="#181818" points="488.0664,1134.625,498.0664,1138.625,488.0664,1142.625,492.0664,1138.625" style="stroke:#181818;stroke-width:1;"/><line style="stroke:#181818;stroke-width:1;" x1="276.8062" x2="494.0664" y1="1138.625" y2="1138.625"/><text fill="#000000" font-family="sans-serif" font-size="13" font-weight="bold" lengthAdjust="spacing" textLength="18.0908" x="283.8062" y="1133.5591">17</text><text fill="#000000" font-family="sans-serif" font-size="13" lengthAdjust="spacing" textLength="138.417" x="305.897" y="1133.5591">Retrieve FHIR Bundle</text></g><g class="message" data-participant-1="LocalXIS" data-participant-2="LocalCP"><polygon fill="#181818" points="94.9321,1170.7578,84.9321,1174.7578,94.9321,1178.7578,90.9321,1174.7578" style="stroke:#181818;stroke-width:1;"/><line style="stroke:#181818;stroke-width:1;stroke-dasharray:2,2;" x1="88.9321" x2="275.8062" y1="1174.7578" y2="1174.7578"/><text fill="#000000" font-family="sans-serif" font-size="13" font-weight="bold" lengthAdjust="spacing" textLength="18.0908" x="100.9321" y="1169.6919">18</text><text fill="#000000" font-family="sans-serif" font-size="13" lengthAdjust="spacing" textLength="95.8877" x="123.0229" y="1169.6919">Display results</text></g><line style="stroke:#181818;stroke-width:0.5;stroke-dasharray:2,2;" x1="0" x2="1135.4644" y1="1182.7578" y2="1182.7578"/><rect fill="none" height="107.7813" rx="7.5" ry="7.5" style="stroke:#000000;stroke-width:1;" width="801.9229" x="166.2708" y="54.2969"/><text fill="#000000" font-family="sans-serif" font-size="14" lengthAdjust="spacing" textLength="191.9189" x="171.2708" y="72.292">(25-04-2024 v1) Describes:</text><text fill="#000000" font-family="sans-serif" font-size="14" lengthAdjust="spacing" textLength="597.6523" x="171.2708" y="88.5889">- A care professional using local XIS to access FHIR APIs at one or more remote XIS's.</text><text fill="#000000" font-family="sans-serif" font-size="14" lengthAdjust="spacing" textLength="791.9229" x="171.2708" y="104.8857">- A care professional from another care organization, using a remote XIS to access the FHIR APIs at the local XIS.</text><text fill="#000000" font-family="sans-serif" font-size="14" lengthAdjust="spacing" textLength="4.4502" x="171.2708" y="121.1826">&#160;</text><text fill="#000000" font-family="sans-serif" font-size="14" lengthAdjust="spacing" textLength="646.7412" x="171.2708" y="137.4795">The local XIS uses Orca to offload localisation, authentication and data retrieval (or writing).</text><text fill="#000000" font-family="sans-serif" font-size="14" lengthAdjust="spacing" textLength="515.751" x="171.2708" y="153.7764">Low-level browser/OAuth2 interactions are not omitted for brevity/clarity.</text><!--SRC=[hLPDRnf94BtFhoYHGq0A9h6I2uUDiBtPjSJA23ZimPUcfu2MPxfdktiWvDTlLSytU4oaX8izC_NnwjMhwdw_zpvpqyaaIuJsUPhSI9DE7FwNevOuZfNOMP568lT6v-a6RUHUbCu4lOG4TwZZEo5VTjRaEhutYR6WZSOeyied2AkJyvYEvtZ015PbK7WeWnR-u4qM0S3mziluu-VnxSVRpt3uD887TDAg3RefVnt33AIm29arMtHE6IqIo9tIEqYCfF__VLnHA11IqcVuzlVZ4cQBHmV20o42GfOQyhUO6ezi_TxTz4VUMfE2qCRlqHQVZTq9hNu8JmOVoioY5QwLd9ow0FX5ZV8cuhJhzYiAXmwUh1GSnMotYH5nyLcvCYErO8_QAncU2LiCiV2Cm5k51meqf1gFLdb2DWgbpSrnd0JkDzOS7Th9quoYt8BI7gsG78ZmKN5KA9XKUOynR2dCnk91-TD49e82dcuYRbJHhoZQcEymc0Viz-pyr69c0E_cua1cf1H2G8nu2XUCxnSW70o2owB5zI0OagIeDfMH2WjpfeNjwM-FHU2BJVYVGO18qAAstVrYrKfA4YSLseEIE2ZBM1Rzkrf7EsZXK-5RrWeOj2ektlQNN86DAch6VpHbJs6rDqU8qGkLk8YdAuDPbi5Sv5hkGvhQk78CR4pXhkXqo_nP3qbUzWFLu1Kf2AIXzd_ten17C_W4jpuyyQ_n1EM0EJ1sGfd6BaEfjahUrAP_PaeIs7zcopKDMT3yr_2Ho-F8Pr0hh5Jlb2YAbKNf9mkJKNsbH0CpeUAeBFo1LJvlpK8JDDJSPUwR8d-g3gskzCbzVzOMjsXv_xYWy8gC8OCUzU0iEMtKiwo3X24kW48vLUSJ6kHNSzK1pBfa1cWZEW-pOcsipGiIq02FErQxNlO8mWQXzYXzCCa1Yvt3JhJ6q36Ai9ukT3tkX90MOxObfdYV2CZGEjCGrzw8ZMtJ_qwR-STrdRFNhguMHzbXVaoCoO3EZeIq4F8oqou0ugSrYjIznU9VsBXDAezsN_k0NJZLw1XIZn2NrRfji3SR08QVgeEcINr58urtfpMTGfkDy_EYwHVERnBFxn3GgoBYNrFnLJbr9NMLFvOBLMboowlWJ2RzQPULIrSaFRkeKbYfQigN9zuzQpfuJN4rkACBKu9H4wZPyckqgTAlhhfN5oXiw0h65mV2_Qn91p8n3kk5MeVWKwQpB9i3mAhTldi2j42yUGpqRFfpyiBGu4NfHSzw3eW7vUXMUghOYoADnqpiCAeFrxFMTaxDRYjhbzvp9xeof_LbBJeJodcfryVpSYn_SHn_PGml6rXBhSrjP-n-PZNsCjGxWBrZn2qnLlt0ye9DDnfEamkYCJE9agVHctU2jpDUd_P-LXgxXf9UuPtf-Ny0]--></g></svg>